<svg xmlns="http://www.w3.org/2000/svg" xmlns:xlink="http://www.w3.org/1999/xlink" width="500" zoomAndPan="magnify" viewBox="0 0 375 374.999991" height="500" preserveAspectRatio="xMidYMid meet" version="1.0"><defs><g/><clipPath id="3da09b2837"><path d="M 59.246094 59.246094 L 315.746094 59.246094 L 315.746094 315.746094 L 59.246094 315.746094 Z M 59.246094 59.246094 " clip-rule="nonzero"/></clipPath><clipPath id="598656b57a"><path d="M 65.234375 65.234375 L 309.734375 65.234375 L 309.734375 309.734375 L 65.234375 309.734375 Z M 65.234375 65.234375 " clip-rule="nonzero"/></clipPath><clipPath id="3bcf901247"><path d="M 70.855469 70.855469 L 304.105469 70.855469 L 304.105469 304.105469 L 70.855469 304.105469 Z M 70.855469 70.855469 " clip-rule="nonzero"/></clipPath><clipPath id="7eaf314cc5"><path d="M 108.609375 108.609375 L 266.109375 108.609375 L 266.109375 266.109375 L 108.609375 266.109375 Z M 108.609375 108.609375 " clip-rule="nonzero"/></clipPath><clipPath id="23044f9a3c"><path d="M 113.925781 113.925781 L 260.925781 113.925781 L 260.925781 260.925781 L 113.925781 260.925781 Z M 113.925781 113.925781 " clip-rule="nonzero"/></clipPath><clipPath id="d25d662e72"><path d="M 128.128906 122.722656 L 246.628906 122.722656 L 246.628906 274.972656 L 128.128906 274.972656 Z M 128.128906 122.722656 " clip-rule="nonzero"/></clipPath><clipPath id="be4bacf5c4"><path d="M 133.253906 127.78125 L 242.003906 127.78125 L 242.003906 266.53125 L 133.253906 266.53125 Z M 133.253906 127.78125 " clip-rule="nonzero"/></clipPath><clipPath id="5fa21d2add"><path d="M 138.535156 133.792969 L 236.785156 133.792969 L 236.785156 259 L 138.535156 259 Z M 138.535156 133.792969 " clip-rule="nonzero"/></clipPath><clipPath id="f29768a6cc"><path d="M 76.835938 174.683594 L 102.335938 174.683594 L 102.335938 200.183594 L 76.835938 200.183594 Z M 76.835938 174.683594 " clip-rule="nonzero"/></clipPath><clipPath id="aea584614c"><path d="M 86 174.683594 L 94 174.683594 L 94 178 L 86 178 Z M 86 174.683594 " clip-rule="nonzero"/></clipPath><clipPath id="2dd4de3e25"><path d="M 85 174.683594 L 94 174.683594 L 94 178 L 85 178 Z M 85 174.683594 " clip-rule="nonzero"/></clipPath><clipPath id="346dddc9d1"><path d="M 97 188 L 102.335938 188 L 102.335938 196 L 97 196 Z M 97 188 " clip-rule="nonzero"/></clipPath><clipPath id="e4b5f57035"><path d="M 97 188 L 102.335938 188 L 102.335938 197 L 97 197 Z M 97 188 " clip-rule="nonzero"/></clipPath><clipPath id="a327a435e9"><path d="M 86 195 L 94 195 L 94 200.183594 L 86 200.183594 Z M 86 195 " clip-rule="nonzero"/></clipPath><clipPath id="7c38303bf5"><path d="M 76.835938 188 L 83 188 L 83 197 L 76.835938 197 Z M 76.835938 188 " clip-rule="nonzero"/></clipPath><clipPath id="e9a3c9958d"><path d="M 272.53125 174.683594 L 298.03125 174.683594 L 298.03125 200.183594 L 272.53125 200.183594 Z M 272.53125 174.683594 " clip-rule="nonzero"/></clipPath><clipPath id="c18f86b49e"><path d="M 281 174.683594 L 290 174.683594 L 290 178 L 281 178 Z M 281 174.683594 " clip-rule="nonzero"/></clipPath><clipPath id="8f7447904a"><path d="M 281 195 L 290 195 L 290 200.183594 L 281 200.183594 Z M 281 195 " clip-rule="nonzero"/></clipPath><clipPath id="f4a05ffce6"><path d="M 272.53125 188 L 278 188 L 278 197 L 272.53125 197 Z M 272.53125 188 " clip-rule="nonzero"/></clipPath><clipPath id="bcad126882"><path d="M 148.023438 152.371094 L 226.773438 152.371094 L 226.773438 246.871094 L 148.023438 246.871094 Z M 148.023438 152.371094 " clip-rule="nonzero"/></clipPath></defs><g clip-path="url(#3da09b2837)"><path fill="#ffffff" d="M 187.496094 59.246094 C 116.664062 59.246094 59.246094 116.664062 59.246094 187.496094 C 59.246094 258.324219 116.664062 315.746094 187.496094 315.746094 C 258.324219 315.746094 315.746094 258.324219 315.746094 187.496094 C 315.746094 116.664062 258.324219 59.246094 187.496094 59.246094 " fill-opacity="1" fill-rule="nonzero"/></g><g clip-path="url(#598656b57a)"><path fill="#111b1e" d="M 187.484375 65.234375 C 119.96875 65.234375 65.234375 119.96875 65.234375 187.484375 C 65.234375 255 119.96875 309.734375 187.484375 309.734375 C 255 309.734375 309.734375 255 309.734375 187.484375 C 309.734375 119.96875 255 65.234375 187.484375 65.234375 " fill-opacity="1" fill-rule="nonzero"/></g><g clip-path="url(#3bcf901247)"><path fill="#ffffff" d="M 187.480469 70.855469 C 123.070312 70.855469 70.855469 123.070312 70.855469 187.480469 C 70.855469 251.890625 123.070312 304.105469 187.480469 304.105469 C 251.890625 304.105469 304.105469 251.890625 304.105469 187.480469 C 304.105469 123.070312 251.890625 70.855469 187.480469 70.855469 " fill-opacity="1" fill-rule="nonzero"/></g><g clip-path="url(#7eaf314cc5)"><path fill="#111e1d" d="M 187.359375 108.609375 C 143.867188 108.609375 108.609375 143.867188 108.609375 187.359375 C 108.609375 230.851562 143.867188 266.109375 187.359375 266.109375 C 230.851562 266.109375 266.109375 230.851562 266.109375 187.359375 C 266.109375 143.867188 230.851562 108.609375 187.359375 108.609375 " fill-opacity="1" fill-rule="nonzero"/></g><g clip-path="url(#23044f9a3c)"><path fill="#ffffff" d="M 187.425781 113.925781 C 146.835938 113.925781 113.925781 146.835938 113.925781 187.425781 C 113.925781 228.019531 146.835938 260.925781 187.425781 260.925781 C 228.019531 260.925781 260.925781 228.019531 260.925781 187.425781 C 260.925781 146.835938 228.019531 113.925781 187.425781 113.925781 " fill-opacity="1" fill-rule="nonzero"/></g><g clip-path="url(#d25d662e72)"><path fill="#ffffff" d="M 246.628906 122.871094 L 246.628906 197.402344 C 246.628906 232.550781 220.066406 260.429688 187.378906 274.820312 C 154.785156 260.457031 128.128906 232.625 128.128906 197.402344 L 128.128906 122.871094 L 246.628906 122.871094 " fill-opacity="1" fill-rule="nonzero"/></g><g clip-path="url(#be4bacf5c4)"><path fill="#111b1e" d="M 242.003906 127.925781 L 242.003906 195.839844 C 242.003906 227.867188 217.625 253.273438 187.628906 266.386719 C 157.71875 253.300781 133.253906 227.9375 133.253906 195.839844 L 133.253906 127.925781 L 242.003906 127.925781 " fill-opacity="1" fill-rule="nonzero"/></g><g clip-path="url(#5fa21d2add)"><path fill="#ffffff" d="M 236.785156 133.917969 L 236.785156 195.230469 C 236.785156 224.144531 214.761719 247.078125 187.660156 258.914062 C 160.636719 247.101562 138.535156 224.203125 138.535156 195.230469 L 138.535156 133.917969 L 236.785156 133.917969 " fill-opacity="1" fill-rule="nonzero"/></g><path fill="#ffffff" d="M 89.585938 199.675781 C 82.835938 199.675781 77.34375 194.183594 77.34375 187.433594 C 77.34375 180.683594 82.835938 175.191406 89.585938 175.191406 C 96.335938 175.191406 101.828125 180.683594 101.828125 187.433594 C 101.828125 194.183594 96.335938 199.675781 89.585938 199.675781 " fill-opacity="1" fill-rule="nonzero"/><g clip-path="url(#f29768a6cc)"><path fill="#111b1e" d="M 89.585938 174.683594 C 82.546875 174.683594 76.835938 180.394531 76.835938 187.433594 C 76.835938 194.476562 82.546875 200.183594 89.585938 200.183594 C 96.628906 200.183594 102.335938 194.476562 102.335938 187.433594 C 102.335938 180.394531 96.628906 174.683594 89.585938 174.683594 Z M 89.585938 175.703125 C 96.058594 175.703125 101.320312 180.964844 101.320312 187.433594 C 101.320312 193.90625 96.058594 199.167969 89.585938 199.167969 C 83.117188 199.167969 77.851562 193.90625 77.851562 187.433594 C 77.851562 180.964844 83.117188 175.703125 89.585938 175.703125 " fill-opacity="1" fill-rule="nonzero"/></g><path fill="#111b1e" d="M 86.039062 188.527344 L 86.058594 184.230469 L 89.820312 182.152344 L 93.5625 184.371094 L 93.542969 188.667969 L 89.78125 190.746094 L 86.039062 188.527344 " fill-opacity="1" fill-rule="nonzero"/><path fill="#111b1e" d="M 89.824219 181.972656 L 85.90625 184.140625 L 85.882812 188.613281 L 89.777344 190.921875 L 93.695312 188.757812 L 93.71875 184.285156 Z M 89.820312 182.328125 L 93.410156 184.457031 L 93.386719 188.578125 L 89.785156 190.570312 L 86.191406 188.441406 L 86.214844 184.320312 L 89.820312 182.328125 " fill-opacity="1" fill-rule="nonzero"/><path fill="#ffffff" d="M 89.992188 181.996094 L 90.039062 177.757812 L 93.734375 175.679688 L 97.382812 177.84375 L 97.332031 182.082031 L 93.636719 184.15625 L 89.992188 181.996094 " fill-opacity="1" fill-rule="nonzero"/><path fill="#111b1e" d="M 93.738281 175.507812 L 89.890625 177.667969 L 89.839844 182.078125 L 93.632812 184.332031 L 97.480469 182.167969 L 97.53125 177.757812 Z M 93.734375 175.855469 L 97.230469 177.929688 L 97.179688 181.992188 L 93.636719 183.984375 L 90.140625 181.910156 L 90.191406 177.84375 L 93.734375 175.855469 " fill-opacity="1" fill-rule="nonzero"/><path fill="#111b1e" d="M 89.882812 182.054688 L 93.636719 184.28125 L 97.4375 182.144531 L 97.492188 177.78125 L 93.734375 175.554688 L 89.933594 177.691406 Z M 93.632812 184.378906 L 89.796875 182.105469 L 89.796875 182.078125 L 89.847656 177.644531 L 89.871094 177.632812 L 93.738281 175.457031 L 97.574219 177.734375 L 97.574219 177.757812 L 97.523438 182.195312 L 97.5 182.207031 L 93.632812 184.378906 " fill-opacity="1" fill-rule="nonzero"/><path fill="#111b1e" d="M 93.636719 184.28125 L 89.882812 182.054688 L 89.933594 177.691406 L 93.734375 175.554688 L 97.492188 177.78125 L 97.4375 182.144531 Z M 93.738281 175.457031 L 89.871094 177.632812 L 89.847656 177.644531 L 89.796875 182.078125 L 89.796875 182.105469 L 93.632812 184.378906 L 97.5 182.207031 L 97.523438 182.195312 L 97.574219 177.757812 L 97.574219 177.734375 L 93.738281 175.457031 " fill-opacity="1" fill-rule="nonzero"/><path fill="#ffffff" d="M 89.992188 195.175781 L 90.039062 190.9375 L 93.734375 188.859375 L 97.382812 191.023438 L 97.332031 195.261719 L 93.636719 197.339844 L 89.992188 195.175781 " fill-opacity="1" fill-rule="nonzero"/><path fill="#111b1e" d="M 93.738281 188.6875 L 89.890625 190.847656 L 89.839844 195.261719 L 93.632812 197.511719 L 97.480469 195.351562 L 97.53125 190.9375 Z M 93.734375 189.035156 L 97.230469 191.109375 L 97.179688 195.171875 L 93.636719 197.164062 L 90.140625 195.089844 L 90.191406 191.027344 L 93.734375 189.035156 " fill-opacity="1" fill-rule="nonzero"/><path fill="#111b1e" d="M 89.882812 195.238281 L 93.636719 197.464844 L 97.4375 195.328125 L 97.492188 190.960938 L 93.734375 188.734375 L 89.933594 190.875 Z M 93.632812 197.5625 L 89.796875 195.285156 L 89.796875 195.261719 L 89.847656 190.824219 L 89.871094 190.8125 L 93.738281 188.636719 L 97.574219 190.914062 L 97.574219 190.9375 L 97.523438 195.375 L 93.632812 197.5625 " fill-opacity="1" fill-rule="nonzero"/><path fill="#111b1e" d="M 93.636719 197.464844 L 89.882812 195.238281 L 89.933594 190.875 L 93.734375 188.734375 L 97.492188 190.960938 L 97.4375 195.328125 Z M 93.738281 188.636719 L 89.871094 190.8125 L 89.847656 190.824219 L 89.796875 195.261719 L 89.796875 195.285156 L 93.632812 197.5625 L 97.523438 195.375 L 97.574219 190.9375 L 97.574219 190.914062 L 93.738281 188.636719 " fill-opacity="1" fill-rule="nonzero"/><path fill="#ffffff" d="M 82.296875 195.175781 L 82.347656 190.9375 L 86.039062 188.859375 L 89.6875 191.023438 L 89.636719 195.261719 L 85.941406 197.339844 L 82.296875 195.175781 " fill-opacity="1" fill-rule="nonzero"/><path fill="#111b1e" d="M 86.042969 188.6875 L 82.195312 190.847656 L 82.144531 195.261719 L 85.9375 197.511719 L 89.785156 195.351562 L 89.839844 190.9375 Z M 86.039062 189.035156 L 89.535156 191.109375 L 89.488281 195.171875 L 85.941406 197.164062 L 82.449219 195.089844 L 82.496094 191.027344 L 86.039062 189.035156 " fill-opacity="1" fill-rule="nonzero"/><path fill="#111b1e" d="M 82.1875 195.238281 L 85.941406 197.464844 L 89.746094 195.328125 L 89.796875 190.960938 L 86.042969 188.734375 L 82.238281 190.875 Z M 85.9375 197.5625 L 82.101562 195.285156 L 82.101562 195.261719 L 82.15625 190.824219 L 82.175781 190.8125 L 86.042969 188.636719 L 89.882812 190.914062 L 89.882812 190.9375 L 89.828125 195.375 L 85.9375 197.5625 " fill-opacity="1" fill-rule="nonzero"/><path fill="#111b1e" d="M 85.941406 197.464844 L 82.1875 195.238281 L 82.238281 190.875 L 86.042969 188.734375 L 89.796875 190.960938 L 89.746094 195.328125 Z M 86.042969 188.636719 L 82.175781 190.8125 L 82.15625 190.824219 L 82.101562 195.261719 L 82.101562 195.285156 L 85.9375 197.5625 L 89.828125 195.375 L 89.882812 190.9375 L 89.882812 190.914062 L 86.042969 188.636719 " fill-opacity="1" fill-rule="nonzero"/><path fill="#ffffff" d="M 78.449219 188.476562 L 78.5 184.238281 L 82.195312 182.164062 L 85.839844 184.324219 L 85.789062 188.5625 L 82.09375 190.640625 L 78.449219 188.476562 " fill-opacity="1" fill-rule="nonzero"/><path fill="#111b1e" d="M 82.195312 181.988281 L 78.347656 184.152344 L 78.296875 188.5625 L 82.09375 190.8125 L 85.9375 188.652344 L 85.992188 184.238281 Z M 82.191406 182.335938 L 85.6875 184.410156 L 85.640625 188.476562 L 82.097656 190.464844 L 78.601562 188.394531 L 78.648438 184.328125 L 82.191406 182.335938 " fill-opacity="1" fill-rule="nonzero"/><path fill="#111b1e" d="M 78.339844 188.539062 L 82.09375 190.765625 L 85.898438 188.628906 L 85.949219 184.265625 L 82.195312 182.039062 L 78.390625 184.175781 Z M 82.09375 190.863281 L 78.253906 188.585938 L 78.253906 188.5625 L 78.308594 184.125 L 82.195312 181.941406 L 86.035156 184.214844 L 86.035156 184.242188 L 85.980469 188.675781 L 85.960938 188.6875 L 82.09375 190.863281 " fill-opacity="1" fill-rule="nonzero"/><path fill="#111b1e" d="M 82.09375 190.765625 L 78.339844 188.539062 L 78.390625 184.175781 L 82.195312 182.039062 L 85.949219 184.265625 L 85.898438 188.628906 Z M 82.195312 181.941406 L 78.308594 184.125 L 78.253906 188.5625 L 78.253906 188.585938 L 82.09375 190.863281 L 85.960938 188.6875 L 85.980469 188.675781 L 86.035156 184.242188 L 86.035156 184.214844 L 82.195312 181.941406 " fill-opacity="1" fill-rule="nonzero"/><path fill="#ffffff" d="M 82.296875 181.996094 L 82.347656 177.757812 L 86.039062 175.679688 L 89.6875 177.84375 L 89.636719 182.082031 L 85.941406 184.15625 L 82.296875 181.996094 " fill-opacity="1" fill-rule="nonzero"/><path fill="#111b1e" d="M 86.042969 175.507812 L 82.195312 177.667969 L 82.144531 182.078125 L 85.9375 184.332031 L 89.785156 182.167969 L 89.839844 177.757812 Z M 86.039062 175.855469 L 89.535156 177.929688 L 89.488281 181.992188 L 85.941406 183.984375 L 82.449219 181.910156 L 82.496094 177.84375 L 86.039062 175.855469 " fill-opacity="1" fill-rule="nonzero"/><path fill="#111b1e" d="M 82.1875 182.054688 L 85.941406 184.28125 L 89.746094 182.144531 L 89.796875 177.78125 L 86.042969 175.554688 L 82.238281 177.691406 Z M 85.9375 184.378906 L 82.101562 182.105469 L 82.101562 182.078125 L 82.15625 177.644531 L 82.175781 177.632812 L 86.042969 175.457031 L 89.882812 177.734375 L 89.882812 177.757812 L 89.828125 182.195312 L 89.808594 182.207031 L 85.9375 184.378906 " fill-opacity="1" fill-rule="nonzero"/><path fill="#111b1e" d="M 85.941406 184.28125 L 82.1875 182.054688 L 82.238281 177.691406 L 86.042969 175.554688 L 89.796875 177.78125 L 89.746094 182.144531 Z M 86.042969 175.457031 L 82.175781 177.632812 L 82.15625 177.644531 L 82.101562 182.078125 L 82.101562 182.105469 L 85.9375 184.378906 L 89.808594 182.207031 L 89.828125 182.195312 L 89.882812 177.757812 L 89.882812 177.734375 L 86.042969 175.457031 " fill-opacity="1" fill-rule="nonzero"/><path fill="#ffffff" d="M 93.839844 188.476562 L 93.886719 184.238281 L 97.582031 182.164062 L 101.226562 184.324219 L 101.179688 188.5625 L 97.484375 190.640625 L 93.839844 188.476562 " fill-opacity="1" fill-rule="nonzero"/><path fill="#111b1e" d="M 97.585938 181.988281 L 93.738281 184.152344 L 93.6875 188.5625 L 97.480469 190.8125 L 101.328125 188.652344 L 101.378906 184.238281 Z M 97.582031 182.335938 L 101.078125 184.410156 L 101.03125 188.476562 L 97.484375 190.464844 L 93.988281 188.394531 L 94.035156 184.328125 L 97.582031 182.335938 " fill-opacity="1" fill-rule="nonzero"/><path fill="#111b1e" d="M 93.730469 188.539062 L 97.480469 190.765625 L 101.285156 188.628906 L 101.339844 184.265625 L 97.585938 182.039062 L 93.78125 184.175781 Z M 97.480469 190.863281 L 93.644531 188.585938 L 93.644531 188.5625 L 93.695312 184.125 L 93.714844 184.113281 L 97.585938 181.941406 L 101.421875 184.214844 L 101.421875 184.242188 L 101.371094 188.675781 L 101.351562 188.6875 L 97.480469 190.863281 " fill-opacity="1" fill-rule="nonzero"/><path fill="#111b1e" d="M 97.480469 190.765625 L 93.730469 188.539062 L 93.78125 184.175781 L 97.585938 182.039062 L 101.339844 184.265625 L 101.285156 188.628906 Z M 97.585938 181.941406 L 93.714844 184.113281 L 93.695312 184.125 L 93.644531 188.5625 L 93.644531 188.585938 L 97.480469 190.863281 L 101.351562 188.6875 L 101.371094 188.675781 L 101.421875 184.242188 L 101.421875 184.214844 L 97.585938 181.941406 " fill-opacity="1" fill-rule="nonzero"/><g clip-path="url(#aea584614c)"><path fill="#111b1e" d="M 86.144531 175.421875 L 86.144531 175.316406 C 87.265625 174.996094 88.421875 174.835938 89.585938 174.835938 C 90.910156 174.835938 92.222656 175.042969 93.484375 175.453125 L 93.484375 175.507812 L 89.789062 177.582031 L 86.144531 175.421875 " fill-opacity="1" fill-rule="nonzero"/></g><g clip-path="url(#2dd4de3e25)"><path fill="#111b1e" d="M 89.585938 174.683594 C 88.339844 174.683594 87.132812 174.867188 85.996094 175.203125 L 85.992188 175.507812 L 89.785156 177.757812 L 93.632812 175.597656 L 93.636719 175.347656 C 92.363281 174.921875 91.003906 174.683594 89.585938 174.683594 Z M 89.585938 174.988281 C 90.800781 174.988281 92.003906 175.164062 93.167969 175.511719 L 89.789062 177.410156 L 86.40625 175.402344 C 87.445312 175.125 88.511719 174.988281 89.585938 174.988281 " fill-opacity="1" fill-rule="nonzero"/></g><path fill="#111b1e" d="M 97.683594 181.996094 L 97.734375 177.824219 C 99.640625 179.441406 101.007812 181.554688 101.695312 183.953125 L 101.332031 184.15625 L 97.683594 181.996094 " fill-opacity="1" fill-rule="nonzero"/><path fill="#111b1e" d="M 97.703125 177.601562 L 97.585938 177.667969 L 97.53125 182.078125 L 101.328125 184.332031 L 101.871094 184.027344 C 101.164062 181.472656 99.6875 179.242188 97.703125 177.601562 Z M 97.878906 178.152344 C 99.609375 179.695312 100.859375 181.660156 101.515625 183.878906 L 101.332031 183.984375 L 97.835938 181.910156 L 97.878906 178.152344 " fill-opacity="1" fill-rule="nonzero"/><g clip-path="url(#346dddc9d1)"><path fill="#111b1e" d="M 97.59375 195.164062 L 97.644531 190.875 L 101.414062 188.773438 L 102.050781 189.148438 C 101.6875 191.675781 100.582031 194.007812 98.847656 195.902344 L 97.59375 195.164062 " fill-opacity="1" fill-rule="nonzero"/></g><g clip-path="url(#e4b5f57035)"><path fill="#111b1e" d="M 101.417969 188.59375 L 97.492188 190.785156 L 97.441406 195.25 L 98.875 196.09375 C 100.648438 194.195312 101.851562 191.761719 102.21875 189.066406 Z M 101.414062 188.949219 L 101.886719 189.226562 C 101.519531 191.644531 100.460938 193.875 98.816406 195.707031 L 97.75 195.078125 L 97.796875 190.964844 L 101.414062 188.949219 " fill-opacity="1" fill-rule="nonzero"/></g><g clip-path="url(#a327a435e9)"><path fill="#111b1e" d="M 89.585938 200.035156 C 88.433594 200.035156 87.285156 199.875 86.167969 199.5625 L 86.191406 197.5 L 89.890625 195.425781 L 93.535156 197.585938 L 93.511719 199.40625 C 92.242188 199.824219 90.921875 200.035156 89.585938 200.035156 " fill-opacity="1" fill-rule="nonzero"/><path fill="#111b1e" d="M 89.890625 195.25 L 86.042969 197.414062 L 86.015625 199.675781 C 87.148438 200.003906 88.347656 200.183594 89.585938 200.183594 C 91.011719 200.183594 92.382812 199.949219 93.664062 199.515625 L 93.6875 197.5 Z M 89.886719 195.597656 L 93.382812 197.671875 L 93.363281 199.296875 C 92.140625 199.6875 90.871094 199.882812 89.585938 199.882812 C 88.484375 199.882812 87.386719 199.734375 86.320312 199.445312 L 86.34375 197.589844 L 89.886719 195.597656 " fill-opacity="1" fill-rule="nonzero"/></g><path fill="#111b1e" d="M 80.496094 196.097656 C 78.734375 194.234375 77.582031 191.929688 77.164062 189.410156 L 78.367188 188.734375 L 82.066406 190.933594 L 82.015625 195.246094 L 80.496094 196.097656 " fill-opacity="1" fill-rule="nonzero"/><g clip-path="url(#7c38303bf5)"><path fill="#111b1e" d="M 78.371094 188.558594 L 76.996094 189.332031 C 77.421875 192.015625 78.667969 194.421875 80.46875 196.292969 L 82.167969 195.335938 L 82.21875 190.847656 Z M 78.363281 188.910156 L 81.910156 191.019531 L 81.863281 195.15625 L 80.527344 195.90625 C 78.855469 194.109375 77.753906 191.898438 77.332031 189.492188 L 78.363281 188.910156 " fill-opacity="1" fill-rule="nonzero"/></g><path fill="#111b1e" d="M 77.597656 183.609375 C 78.425781 181.121094 79.945312 178.972656 81.992188 177.382812 L 82.265625 177.550781 L 82.214844 181.972656 L 78.464844 184.136719 L 77.597656 183.609375 " fill-opacity="1" fill-rule="nonzero"/><path fill="#111b1e" d="M 81.980469 177.195312 C 79.871094 178.808594 78.257812 181.0625 77.410156 183.679688 L 78.460938 184.316406 L 82.371094 182.066406 L 82.421875 177.464844 Z M 82.003906 177.574219 L 82.109375 177.636719 L 82.0625 181.882812 L 78.464844 183.957031 L 77.785156 183.542969 C 78.601562 181.167969 80.054688 179.109375 82.003906 177.574219 " fill-opacity="1" fill-rule="nonzero"/><path fill="#ffffff" d="M 285.28125 199.675781 C 278.53125 199.675781 273.039062 194.183594 273.039062 187.433594 C 273.039062 180.683594 278.53125 175.191406 285.28125 175.191406 C 292.03125 175.191406 297.523438 180.683594 297.523438 187.433594 C 297.523438 194.183594 292.03125 199.675781 285.28125 199.675781 " fill-opacity="1" fill-rule="nonzero"/><g clip-path="url(#e9a3c9958d)"><path fill="#111b1e" d="M 285.28125 174.683594 C 278.242188 174.683594 272.53125 180.394531 272.53125 187.433594 C 272.53125 194.476562 278.242188 200.183594 285.28125 200.183594 C 292.324219 200.183594 298.03125 194.476562 298.03125 187.433594 C 298.03125 180.394531 292.324219 174.683594 285.28125 174.683594 Z M 285.28125 175.703125 C 291.753906 175.703125 297.015625 180.964844 297.015625 187.433594 C 297.015625 193.90625 291.753906 199.167969 285.28125 199.167969 C 278.8125 199.167969 273.546875 193.90625 273.546875 187.433594 C 273.546875 180.964844 278.8125 175.703125 285.28125 175.703125 " fill-opacity="1" fill-rule="nonzero"/></g><path fill="#111b1e" d="M 281.734375 188.527344 L 281.757812 184.230469 L 285.515625 182.152344 L 289.257812 184.371094 L 289.238281 188.667969 L 285.476562 190.746094 L 281.734375 188.527344 " fill-opacity="1" fill-rule="nonzero"/><path fill="#111b1e" d="M 285.519531 181.972656 L 281.601562 184.140625 L 281.582031 188.613281 L 285.472656 190.921875 L 289.390625 188.757812 L 289.414062 184.285156 Z M 285.515625 182.328125 L 289.105469 184.457031 L 289.082031 188.578125 L 285.480469 190.570312 L 281.886719 188.441406 L 281.910156 184.320312 L 285.515625 182.328125 " fill-opacity="1" fill-rule="nonzero"/><path fill="#ffffff" d="M 285.6875 181.996094 L 285.734375 177.757812 L 289.429688 175.679688 L 293.078125 177.84375 L 293.027344 182.082031 L 289.332031 184.15625 L 285.6875 181.996094 " fill-opacity="1" fill-rule="nonzero"/><path fill="#111b1e" d="M 289.433594 175.507812 L 285.585938 177.667969 L 285.535156 182.078125 L 289.328125 184.332031 L 293.175781 182.167969 L 293.230469 177.757812 Z M 289.429688 175.855469 L 292.925781 177.929688 L 292.878906 181.992188 L 289.332031 183.984375 L 285.839844 181.910156 L 285.886719 177.84375 L 289.429688 175.855469 " fill-opacity="1" fill-rule="nonzero"/><path fill="#111b1e" d="M 285.578125 182.054688 L 289.332031 184.28125 L 293.132812 182.144531 L 293.1875 177.78125 L 289.433594 175.554688 L 285.628906 177.691406 Z M 289.328125 184.378906 L 285.492188 182.105469 L 285.492188 182.078125 L 285.542969 177.644531 L 285.566406 177.632812 L 289.433594 175.457031 L 293.269531 177.734375 L 293.269531 177.757812 L 293.21875 182.195312 L 293.199219 182.207031 L 289.328125 184.378906 " fill-opacity="1" fill-rule="nonzero"/><path fill="#111b1e" d="M 289.332031 184.28125 L 285.578125 182.054688 L 285.628906 177.691406 L 289.433594 175.554688 L 293.1875 177.78125 L 293.132812 182.144531 Z M 289.433594 175.457031 L 285.566406 177.632812 L 285.542969 177.644531 L 285.492188 182.078125 L 285.492188 182.105469 L 289.328125 184.378906 L 293.199219 182.207031 L 293.21875 182.195312 L 293.269531 177.757812 L 293.269531 177.734375 L 289.433594 175.457031 " fill-opacity="1" fill-rule="nonzero"/><path fill="#ffffff" d="M 285.6875 195.175781 L 285.734375 190.9375 L 289.429688 188.859375 L 293.078125 191.023438 L 293.027344 195.261719 L 289.332031 197.339844 L 285.6875 195.175781 " fill-opacity="1" fill-rule="nonzero"/><path fill="#111b1e" d="M 289.433594 188.6875 L 285.585938 190.847656 L 285.535156 195.261719 L 289.328125 197.511719 L 293.175781 195.351562 L 293.230469 190.9375 Z M 289.429688 189.035156 L 292.925781 191.109375 L 292.878906 195.171875 L 289.332031 197.164062 L 285.839844 195.089844 L 285.886719 191.027344 L 289.429688 189.035156 " fill-opacity="1" fill-rule="nonzero"/><path fill="#111b1e" d="M 285.578125 195.238281 L 289.332031 197.464844 L 293.132812 195.328125 L 293.1875 190.960938 L 289.433594 188.734375 L 285.628906 190.875 Z M 289.328125 197.5625 L 285.492188 195.285156 L 285.492188 195.261719 L 285.542969 190.824219 L 285.566406 190.8125 L 289.433594 188.636719 L 293.269531 190.914062 L 293.269531 190.9375 L 293.21875 195.375 L 289.328125 197.5625 " fill-opacity="1" fill-rule="nonzero"/><path fill="#111b1e" d="M 289.332031 197.464844 L 285.578125 195.238281 L 285.628906 190.875 L 289.433594 188.734375 L 293.1875 190.960938 L 293.132812 195.328125 Z M 289.433594 188.636719 L 285.566406 190.8125 L 285.542969 190.824219 L 285.492188 195.261719 L 285.492188 195.285156 L 289.328125 197.5625 L 293.21875 195.375 L 293.269531 190.9375 L 293.269531 190.914062 L 289.433594 188.636719 " fill-opacity="1" fill-rule="nonzero"/><path fill="#ffffff" d="M 277.992188 195.175781 L 278.042969 190.9375 L 281.738281 188.859375 L 285.382812 191.023438 L 285.332031 195.261719 L 281.636719 197.339844 L 277.992188 195.175781 " fill-opacity="1" fill-rule="nonzero"/><path fill="#111b1e" d="M 281.738281 188.6875 L 277.890625 190.847656 L 277.839844 195.261719 L 281.636719 197.511719 L 285.480469 195.351562 L 285.535156 190.9375 Z M 281.734375 189.035156 L 285.230469 191.109375 L 285.183594 195.171875 L 281.640625 197.164062 L 278.144531 195.089844 L 278.191406 191.027344 L 281.734375 189.035156 " fill-opacity="1" fill-rule="nonzero"/><path fill="#111b1e" d="M 277.882812 195.238281 L 281.636719 197.464844 L 285.441406 195.328125 L 285.492188 190.960938 L 281.738281 188.734375 L 277.933594 190.875 Z M 281.632812 197.5625 L 277.796875 195.285156 L 277.796875 195.261719 L 277.851562 190.824219 L 277.871094 190.8125 L 281.738281 188.636719 L 285.578125 190.914062 L 285.578125 190.9375 L 285.523438 195.375 L 281.632812 197.5625 " fill-opacity="1" fill-rule="nonzero"/><path fill="#111b1e" d="M 281.636719 197.464844 L 277.882812 195.238281 L 277.933594 190.875 L 281.738281 188.734375 L 285.492188 190.960938 L 285.441406 195.328125 Z M 281.738281 188.636719 L 277.871094 190.8125 L 277.851562 190.824219 L 277.796875 195.261719 L 277.796875 195.285156 L 281.632812 197.5625 L 285.523438 195.375 L 285.578125 190.9375 L 285.578125 190.914062 L 281.738281 188.636719 " fill-opacity="1" fill-rule="nonzero"/><path fill="#ffffff" d="M 274.144531 188.476562 L 274.195312 184.238281 L 277.890625 182.164062 L 281.535156 184.324219 L 281.484375 188.5625 L 277.789062 190.640625 L 274.144531 188.476562 " fill-opacity="1" fill-rule="nonzero"/><path fill="#111b1e" d="M 277.890625 181.988281 L 274.042969 184.152344 L 273.992188 188.5625 L 277.789062 190.8125 L 281.636719 188.652344 L 281.6875 184.238281 Z M 277.886719 182.335938 L 281.382812 184.410156 L 281.335938 188.476562 L 277.792969 190.464844 L 274.296875 188.394531 L 274.34375 184.328125 L 277.886719 182.335938 " fill-opacity="1" fill-rule="nonzero"/><path fill="#111b1e" d="M 274.035156 188.539062 L 277.789062 190.765625 L 281.59375 188.628906 L 281.644531 184.265625 L 277.890625 182.039062 L 274.085938 184.175781 Z M 277.789062 190.863281 L 273.949219 188.585938 L 273.949219 188.5625 L 274.003906 184.125 L 277.890625 181.941406 L 281.730469 184.214844 L 281.730469 184.242188 L 281.675781 188.675781 L 281.65625 188.6875 L 277.789062 190.863281 " fill-opacity="1" fill-rule="nonzero"/><path fill="#111b1e" d="M 277.789062 190.765625 L 274.035156 188.539062 L 274.085938 184.175781 L 277.890625 182.039062 L 281.644531 184.265625 L 281.59375 188.628906 Z M 277.890625 181.941406 L 274.003906 184.125 L 273.949219 188.5625 L 273.949219 188.585938 L 277.789062 190.863281 L 281.65625 188.6875 L 281.675781 188.675781 L 281.730469 184.242188 L 281.730469 184.214844 L 277.890625 181.941406 " fill-opacity="1" fill-rule="nonzero"/><path fill="#ffffff" d="M 277.992188 181.996094 L 278.042969 177.757812 L 281.738281 175.679688 L 285.382812 177.84375 L 285.332031 182.082031 L 281.636719 184.15625 L 277.992188 181.996094 " fill-opacity="1" fill-rule="nonzero"/><path fill="#111b1e" d="M 281.738281 175.507812 L 277.890625 177.667969 L 277.839844 182.078125 L 281.636719 184.332031 L 285.480469 182.167969 L 285.535156 177.757812 Z M 281.734375 175.855469 L 285.230469 177.929688 L 285.183594 181.992188 L 281.640625 183.984375 L 278.144531 181.910156 L 278.191406 177.84375 L 281.734375 175.855469 " fill-opacity="1" fill-rule="nonzero"/><path fill="#111b1e" d="M 277.882812 182.054688 L 281.636719 184.28125 L 285.441406 182.144531 L 285.492188 177.78125 L 281.738281 175.554688 L 277.933594 177.691406 Z M 281.632812 184.378906 L 277.796875 182.105469 L 277.796875 182.078125 L 277.851562 177.644531 L 277.871094 177.632812 L 281.738281 175.457031 L 285.578125 177.734375 L 285.578125 177.757812 L 285.523438 182.195312 L 285.503906 182.207031 L 281.632812 184.378906 " fill-opacity="1" fill-rule="nonzero"/><path fill="#111b1e" d="M 281.636719 184.28125 L 277.882812 182.054688 L 277.933594 177.691406 L 281.738281 175.554688 L 285.492188 177.78125 L 285.441406 182.144531 Z M 281.738281 175.457031 L 277.871094 177.632812 L 277.851562 177.644531 L 277.796875 182.078125 L 277.796875 182.105469 L 281.632812 184.378906 L 285.503906 182.207031 L 285.523438 182.195312 L 285.578125 177.757812 L 285.578125 177.734375 L 281.738281 175.457031 " fill-opacity="1" fill-rule="nonzero"/><path fill="#ffffff" d="M 289.535156 188.476562 L 289.582031 184.238281 L 293.277344 182.164062 L 296.921875 184.324219 L 296.875 188.5625 L 293.179688 190.640625 L 289.535156 188.476562 " fill-opacity="1" fill-rule="nonzero"/><path fill="#111b1e" d="M 293.28125 181.988281 L 289.433594 184.152344 L 289.382812 188.5625 L 293.175781 190.8125 L 297.023438 188.652344 L 297.074219 184.238281 Z M 293.277344 182.335938 L 296.773438 184.410156 L 296.726562 188.476562 L 293.179688 190.464844 L 289.683594 188.394531 L 289.730469 184.328125 L 293.277344 182.335938 " fill-opacity="1" fill-rule="nonzero"/><path fill="#111b1e" d="M 289.425781 188.539062 L 293.175781 190.765625 L 296.984375 188.628906 L 297.035156 184.265625 L 293.28125 182.039062 L 289.476562 184.175781 Z M 293.175781 190.863281 L 289.339844 188.585938 L 289.339844 188.5625 L 289.390625 184.125 L 289.410156 184.113281 L 293.28125 181.941406 L 297.117188 184.214844 L 297.117188 184.242188 L 297.066406 188.675781 L 297.046875 188.6875 L 293.175781 190.863281 " fill-opacity="1" fill-rule="nonzero"/><path fill="#111b1e" d="M 293.175781 190.765625 L 289.425781 188.539062 L 289.476562 184.175781 L 293.28125 182.039062 L 297.035156 184.265625 L 296.984375 188.628906 Z M 293.28125 181.941406 L 289.410156 184.113281 L 289.390625 184.125 L 289.339844 188.5625 L 289.339844 188.585938 L 293.175781 190.863281 L 297.046875 188.6875 L 297.066406 188.675781 L 297.117188 184.242188 L 297.117188 184.214844 L 293.28125 181.941406 " fill-opacity="1" fill-rule="nonzero"/><g clip-path="url(#c18f86b49e)"><path fill="#111b1e" d="M 281.839844 175.421875 L 281.839844 175.316406 C 282.960938 174.996094 284.117188 174.835938 285.28125 174.835938 C 286.605469 174.835938 287.917969 175.042969 289.179688 175.453125 L 289.179688 175.507812 L 285.484375 177.582031 L 281.839844 175.421875 " fill-opacity="1" fill-rule="nonzero"/><path fill="#111b1e" d="M 285.28125 174.683594 C 284.035156 174.683594 282.828125 174.867188 281.691406 175.203125 L 281.6875 175.507812 L 285.480469 177.757812 L 289.328125 175.597656 L 289.332031 175.347656 C 288.058594 174.921875 286.699219 174.683594 285.28125 174.683594 Z M 285.28125 174.988281 C 286.496094 174.988281 287.699219 175.164062 288.863281 175.511719 L 285.484375 177.410156 L 282.101562 175.402344 C 283.140625 175.125 284.207031 174.988281 285.28125 174.988281 " fill-opacity="1" fill-rule="nonzero"/></g><path fill="#111b1e" d="M 293.378906 181.996094 L 293.429688 177.824219 C 295.335938 179.441406 296.703125 181.554688 297.390625 183.953125 L 297.027344 184.15625 L 293.378906 181.996094 " fill-opacity="1" fill-rule="nonzero"/><path fill="#111b1e" d="M 293.398438 177.601562 L 293.28125 177.667969 L 293.230469 182.078125 L 297.023438 184.332031 L 297.566406 184.027344 C 296.859375 181.472656 295.382812 179.242188 293.398438 177.601562 Z M 293.574219 178.152344 C 295.304688 179.695312 296.554688 181.660156 297.210938 183.878906 L 297.027344 183.984375 L 293.53125 181.910156 L 293.574219 178.152344 " fill-opacity="1" fill-rule="nonzero"/><path fill="#111b1e" d="M 293.289062 195.164062 L 293.339844 190.875 L 297.109375 188.773438 L 297.746094 189.148438 C 297.382812 191.675781 296.277344 194.007812 294.542969 195.902344 L 293.289062 195.164062 " fill-opacity="1" fill-rule="nonzero"/><path fill="#111b1e" d="M 297.113281 188.59375 L 293.1875 190.785156 L 293.136719 195.25 L 294.570312 196.09375 C 296.34375 194.195312 297.546875 191.761719 297.914062 189.066406 Z M 297.109375 188.949219 L 297.582031 189.226562 C 297.214844 191.644531 296.15625 193.875 294.511719 195.707031 L 293.445312 195.078125 L 293.492188 190.964844 L 297.109375 188.949219 " fill-opacity="1" fill-rule="nonzero"/><g clip-path="url(#8f7447904a)"><path fill="#111b1e" d="M 285.28125 200.035156 C 284.128906 200.035156 282.980469 199.875 281.863281 199.5625 L 281.886719 197.5 L 285.585938 195.425781 L 289.230469 197.585938 L 289.210938 199.40625 C 287.9375 199.824219 286.617188 200.035156 285.28125 200.035156 " fill-opacity="1" fill-rule="nonzero"/><path fill="#111b1e" d="M 285.585938 195.25 L 281.738281 197.414062 L 281.710938 199.675781 C 282.84375 200.003906 284.042969 200.183594 285.28125 200.183594 C 286.707031 200.183594 288.078125 199.949219 289.359375 199.515625 L 289.382812 197.5 Z M 285.582031 195.597656 L 289.078125 197.671875 L 289.058594 199.296875 C 287.835938 199.6875 286.566406 199.882812 285.28125 199.882812 C 284.179688 199.882812 283.082031 199.734375 282.015625 199.445312 L 282.039062 197.589844 L 285.582031 195.597656 " fill-opacity="1" fill-rule="nonzero"/></g><g clip-path="url(#f4a05ffce6)"><path fill="#111b1e" d="M 276.195312 196.097656 C 274.429688 194.234375 273.277344 191.929688 272.859375 189.410156 L 274.0625 188.734375 L 277.761719 190.933594 L 277.710938 195.246094 L 276.195312 196.097656 " fill-opacity="1" fill-rule="nonzero"/><path fill="#111b1e" d="M 274.066406 188.558594 L 272.691406 189.332031 C 273.117188 192.015625 274.363281 194.421875 276.164062 196.292969 L 277.863281 195.335938 L 277.914062 190.847656 Z M 274.058594 188.910156 L 277.605469 191.019531 L 277.558594 195.15625 L 276.222656 195.90625 C 274.550781 194.109375 273.449219 191.898438 273.027344 189.492188 L 274.058594 188.910156 " fill-opacity="1" fill-rule="nonzero"/></g><path fill="#111b1e" d="M 273.292969 183.609375 C 274.121094 181.121094 275.640625 178.972656 277.6875 177.382812 L 277.960938 177.550781 L 277.910156 181.972656 L 274.160156 184.136719 L 273.292969 183.609375 " fill-opacity="1" fill-rule="nonzero"/><path fill="#111b1e" d="M 277.679688 177.195312 C 275.566406 178.808594 273.953125 181.0625 273.105469 183.679688 L 274.15625 184.316406 L 278.066406 182.066406 L 278.117188 177.464844 Z M 277.699219 177.574219 L 277.804688 177.636719 L 277.757812 181.882812 L 274.160156 183.957031 L 273.480469 183.542969 C 274.296875 181.167969 275.75 179.109375 277.699219 177.574219 " fill-opacity="1" fill-rule="nonzero"/><path fill="#ffffff" d="M 176.179688 216.207031 C 175.792969 214.945312 175.292969 213.71875 174.785156 212.5 C 174.363281 211.488281 173.832031 210.519531 173.035156 209.753906 C 172.289062 209.035156 171.472656 208.386719 170.691406 207.703125 C 170.148438 207.230469 169.542969 206.808594 169.085938 206.265625 C 168.03125 205 167.605469 203.527344 168.039062 201.902344 C 168.367188 200.679688 168.742188 199.46875 169.171875 198.277344 C 169.5625 197.191406 170.546875 194.890625 170.578125 194.789062 C 170.523438 194.792969 168.050781 197.9375 167.195312 199.644531 C 166.464844 201.105469 165.933594 202.644531 165.773438 204.292969 C 165.664062 205.429688 165.644531 206.558594 165.925781 207.664062 C 166.125 208.445312 166.425781 209.203125 166.660156 209.976562 C 166.816406 210.488281 166.980469 211.007812 167.050781 211.535156 C 167.21875 212.785156 167.257812 214.039062 167.078125 215.296875 C 166.964844 216.082031 166.4375 217.949219 166.382812 218.121094 C 166.414062 218.140625 167.101562 217.566406 167.335938 217.207031 C 167.886719 216.363281 168.359375 215.476562 168.582031 214.464844 C 168.8125 213.421875 169.03125 212.382812 168.980469 211.304688 C 168.953125 210.789062 168.996094 209.667969 169.015625 209.601562 C 169.148438 209.660156 169.261719 209.710938 169.375 209.757812 C 170.371094 210.15625 171.269531 210.726562 171.964844 211.535156 C 172.617188 212.289062 173.230469 213.097656 173.746094 213.949219 C 174.910156 215.875 175.855469 217.917969 176.609375 220.042969 C 176.738281 220.40625 176.917969 220.75 177.074219 221.101562 C 177.105469 221.09375 177.007812 219.90625 176.9375 219.585938 C 176.695312 218.457031 176.519531 217.308594 176.179688 216.207031 " fill-opacity="1" fill-rule="nonzero"/><path fill="#ffffff" d="M 166.398438 181.246094 C 166.453125 181.3125 166.519531 181.363281 166.613281 181.453125 C 166.621094 181.328125 166.625 181.257812 166.632812 181.1875 C 166.777344 180.207031 166.890625 179.222656 167.082031 178.25 C 167.21875 177.550781 167.65625 177.257812 168.375 177.242188 C 168.484375 177.242188 168.59375 177.238281 168.699219 177.242188 C 170.097656 177.273438 171.496094 177.308594 172.945312 177.34375 C 172.570312 176.90625 172.238281 176.429688 171.816406 176.0625 C 170.753906 175.148438 169.644531 174.289062 168.566406 173.402344 C 168.386719 173.257812 168.257812 173.257812 168.101562 173.414062 C 167.164062 174.332031 166.214844 175.234375 165.296875 176.167969 C 164.832031 176.636719 164.714844 177.242188 164.8125 177.890625 C 165 179.171875 165.585938 180.265625 166.398438 181.246094 " fill-opacity="1" fill-rule="nonzero"/><path fill="#ffffff" d="M 185.277344 171.964844 C 185.253906 171.902344 185.242188 171.847656 185.21875 171.804688 C 184.648438 170.746094 184.105469 169.675781 183.5 168.636719 C 183.175781 168.085938 182.792969 167.546875 182.351562 167.085938 C 181.359375 166.050781 180.097656 165.441406 178.757812 164.984375 C 178.6875 164.957031 178.613281 164.953125 178.539062 164.9375 C 179.898438 166.167969 181.128906 167.492188 182.136719 169.058594 C 181.441406 168.828125 180.800781 168.605469 180.152344 168.402344 C 178.167969 167.78125 176.160156 167.550781 174.101562 167.988281 C 173.449219 168.125 172.835938 168.347656 172.214844 168.738281 C 176.976562 168.335938 181.203125 169.792969 185.277344 171.964844 " fill-opacity="1" fill-rule="nonzero"/><path fill="#ffffff" d="M 170.359375 182.742188 C 170.265625 182.773438 165.886719 185.359375 163.890625 186.898438 C 162.816406 187.726562 161.808594 188.628906 161.292969 189.929688 C 160.824219 191.121094 159.980469 193.636719 159.980469 193.71875 C 161.640625 191.800781 163.214844 189.851562 164.933594 188.035156 C 166.652344 186.214844 168.515625 184.53125 170.359375 182.742188 " fill-opacity="1" fill-rule="nonzero"/><path fill="#111b1e" d="M 182.421875 184.03125 C 181.867188 183.691406 181.382812 183.226562 180.671875 183.222656 C 180.527344 183.222656 180.382812 183.1875 180.242188 183.152344 C 179.210938 182.890625 177.285156 181.8125 177.195312 181.757812 C 177.183594 182.183594 177.234375 182.554688 177.394531 182.902344 C 177.683594 183.53125 178.105469 184.066406 178.703125 184.402344 C 179.558594 184.878906 180.453125 185.292969 181.335938 185.714844 C 181.527344 185.804688 181.632812 185.917969 181.707031 186.109375 C 182.046875 186.972656 182.398438 187.828125 182.746094 188.6875 C 182.773438 188.753906 182.820312 188.8125 182.898438 188.933594 C 182.90625 188.808594 182.910156 188.765625 182.910156 188.722656 C 182.910156 187.480469 182.890625 186.242188 182.925781 185.003906 C 182.9375 184.546875 182.808594 184.269531 182.421875 184.03125 " fill-opacity="1" fill-rule="nonzero"/><g clip-path="url(#bcad126882)"><path fill="#111b1e" d="M 222.484375 188.042969 C 221.636719 187.289062 221.035156 186.367188 220.640625 185.308594 C 220.023438 183.644531 219.421875 181.976562 218.792969 180.3125 C 218.027344 178.289062 217.289062 176.25 216.460938 174.25 C 215.78125 172.613281 214.777344 171.15625 213.445312 169.976562 C 212.558594 169.191406 211.589844 168.503906 210.660156 167.777344 C 210.488281 167.644531 210.308594 167.515625 210.109375 167.371094 C 210.214844 167.195312 210.316406 167.027344 210.417969 166.859375 C 210.863281 166.117188 211.347656 165.398438 211.734375 164.628906 C 211.9375 164.21875 212.03125 163.722656 212.066406 163.261719 C 212.136719 162.355469 212.007812 161.460938 211.808594 160.578125 C 211.644531 159.863281 211.316406 159.226562 210.785156 158.710938 C 210.558594 158.492188 210.085938 158.050781 210.0625 158.0625 C 210.0625 158.585938 210.09375 159.109375 210.054688 159.628906 C 210.003906 160.277344 209.835938 160.894531 209.457031 161.449219 C 208.867188 162.304688 207.117188 163.027344 205.898438 162.167969 C 205.390625 161.8125 204.863281 161.484375 204.355469 161.136719 C 203.667969 160.664062 202.90625 160.496094 202.097656 160.644531 C 201.179688 160.8125 200.269531 161.03125 199.355469 161.226562 C 199.261719 161.246094 199.164062 161.269531 199.054688 161.296875 C 199.160156 160.917969 199.261719 160.558594 199.355469 160.195312 C 199.585938 159.320312 199.511719 158.46875 199.175781 157.628906 C 198.652344 156.3125 196.890625 154.097656 196.839844 154.066406 C 196.867188 154.265625 196.894531 154.441406 196.917969 154.617188 C 197.050781 155.640625 196.957031 156.640625 196.511719 157.582031 C 195.886719 158.917969 194.332031 159.746094 192.859375 159.542969 C 192.589844 159.507812 192.324219 159.441406 192.0625 159.375 C 191.257812 159.167969 190.804688 158.5625 190.378906 157.90625 C 189.707031 156.867188 189.027344 155.835938 188.320312 154.816406 C 187.882812 154.1875 187.722656 153.457031 187.496094 152.75 C 187.464844 152.652344 187.429688 152.558594 187.394531 152.464844 C 187.394531 152.457031 187.394531 152.453125 187.394531 152.449219 C 187.390625 152.453125 187.390625 152.453125 187.390625 152.457031 C 187.390625 152.453125 187.390625 152.453125 187.386719 152.449219 C 187.386719 152.453125 187.386719 152.457031 187.386719 152.464844 C 187.355469 152.558594 187.316406 152.652344 187.285156 152.75 C 187.058594 153.457031 186.898438 154.1875 186.460938 154.816406 C 185.757812 155.835938 185.074219 156.867188 184.402344 157.90625 C 183.980469 158.5625 183.523438 159.167969 182.71875 159.375 C 182.457031 159.441406 182.191406 159.507812 181.921875 159.542969 C 180.453125 159.746094 178.894531 158.917969 178.269531 157.582031 C 177.828125 156.640625 177.734375 155.640625 177.863281 154.617188 C 177.886719 154.441406 177.914062 154.265625 177.941406 154.066406 C 177.890625 154.097656 176.128906 156.3125 175.605469 157.628906 C 175.273438 158.46875 175.195312 159.320312 175.425781 160.195312 C 175.519531 160.558594 175.625 160.917969 175.726562 161.296875 C 175.617188 161.269531 175.519531 161.246094 175.425781 161.226562 C 174.511719 161.03125 173.605469 160.8125 172.6875 160.644531 C 171.875 160.496094 171.117188 160.664062 170.429688 161.136719 C 169.917969 161.484375 169.390625 161.8125 168.886719 162.167969 C 167.664062 163.027344 165.914062 162.304688 165.328125 161.449219 C 164.945312 160.894531 164.777344 160.277344 164.726562 159.628906 C 164.6875 159.109375 164.71875 158.585938 164.71875 158.0625 C 164.695312 158.050781 164.226562 158.492188 163.996094 158.710938 C 163.464844 159.226562 163.140625 159.863281 162.976562 160.578125 C 162.773438 161.460938 162.644531 162.355469 162.714844 163.261719 C 162.75 163.722656 162.84375 164.21875 163.050781 164.628906 C 163.433594 165.398438 163.917969 166.117188 164.363281 166.859375 C 164.464844 167.027344 164.566406 167.195312 164.671875 167.371094 C 164.472656 167.515625 164.292969 167.644531 164.121094 167.777344 C 163.191406 168.503906 162.222656 169.191406 161.339844 169.976562 C 160.003906 171.15625 159 172.613281 158.320312 174.25 C 157.492188 176.25 156.753906 178.289062 155.988281 180.3125 C 155.363281 181.976562 154.757812 183.644531 154.140625 185.308594 C 153.746094 186.367188 153.144531 187.289062 152.300781 188.042969 C 151.066406 189.148438 148.171875 191.117188 148.023438 191.222656 C 148.273438 191.28125 150.082031 191.535156 150.816406 191.609375 C 151.9375 191.722656 153.058594 191.808594 154.1875 191.597656 C 155.0625 191.433594 156.703125 190.511719 156.777344 190.476562 C 156.679688 190.703125 156.554688 190.882812 156.425781 191.058594 C 155.84375 191.839844 155.261719 192.613281 154.835938 193.503906 C 154.234375 194.777344 153.710938 196.074219 153.445312 197.460938 C 153.15625 198.964844 152.929688 200.476562 152.980469 202.019531 C 153.015625 203.039062 153.25 205.507812 153.289062 205.519531 C 154.410156 202.332031 156.683594 200.027344 159.070312 197.800781 C 159.078125 197.890625 157.585938 201.039062 156.871094 202.546875 C 156.1875 203.988281 155.621094 205.476562 155.25 207.035156 C 155.011719 208.03125 154.875 209.042969 155.097656 210.066406 C 155.34375 211.210938 155.695312 212.320312 156.304688 213.328125 C 157.199219 214.804688 158.078125 216.296875 159.019531 217.746094 C 160.296875 219.703125 161.4375 221.710938 161.75 224.082031 C 161.902344 225.234375 161.8125 226.351562 161.351562 227.429688 C 160.945312 228.371094 160.351562 229.183594 159.671875 229.9375 C 159.621094 229.996094 159.578125 230.054688 159.527344 230.117188 C 159.546875 230.140625 165.292969 228.386719 167.269531 225.847656 C 167.574219 228.066406 168.226562 230.105469 169.375 231.972656 C 169.945312 232.898438 170.511719 233.835938 171.40625 234.484375 C 172.265625 235.109375 173.140625 235.722656 174.046875 236.28125 C 175.292969 237.050781 176.554688 237.792969 177.667969 238.761719 C 177.882812 238.949219 178.113281 239.125 178.386719 239.347656 C 178.347656 239.238281 176.75 235.234375 175.960938 233.285156 C 175.609375 232.402344 175.355469 231.5 175.226562 230.5 C 175.300781 230.574219 176.503906 231.882812 177.066406 232.503906 C 178.214844 233.761719 179.332031 235.050781 180.511719 236.277344 C 181.441406 237.25 182.199219 238.332031 182.804688 239.523438 C 183.246094 240.390625 183.585938 241.3125 184.066406 242.15625 C 184.632812 243.148438 185.273438 244.105469 185.933594 245.039062 C 186.371094 245.660156 186.898438 246.214844 187.386719 246.796875 C 187.386719 246.796875 187.386719 246.800781 187.386719 246.800781 C 187.390625 246.800781 187.390625 246.800781 187.390625 246.796875 C 187.390625 246.800781 187.390625 246.800781 187.394531 246.800781 C 187.394531 246.800781 187.394531 246.796875 187.394531 246.796875 C 187.882812 246.214844 188.410156 245.660156 188.847656 245.039062 C 189.507812 244.105469 190.148438 243.148438 190.714844 242.15625 C 191.195312 241.3125 191.535156 240.390625 191.976562 239.523438 C 192.582031 238.332031 193.339844 237.25 194.273438 236.277344 C 195.449219 235.050781 196.566406 233.761719 197.714844 232.503906 C 198.277344 231.882812 199.480469 230.574219 199.554688 230.5 C 199.429688 231.5 199.171875 232.402344 198.820312 233.285156 C 198.035156 235.234375 196.4375 239.238281 196.394531 239.347656 C 196.667969 239.125 196.898438 238.949219 197.113281 238.761719 C 198.226562 237.792969 199.488281 237.050781 200.734375 236.28125 C 201.640625 235.722656 202.515625 235.109375 203.375 234.484375 C 204.273438 233.835938 204.835938 232.898438 205.40625 231.972656 C 206.558594 230.105469 207.210938 228.066406 207.511719 225.847656 C 209.492188 228.386719 215.234375 230.140625 215.253906 230.117188 C 215.207031 230.054688 215.160156 229.996094 215.109375 229.9375 C 214.429688 229.183594 213.835938 228.371094 213.429688 227.429688 C 212.96875 226.351562 212.878906 225.234375 213.03125 224.082031 C 213.34375 221.710938 214.484375 219.703125 215.761719 217.746094 C 216.703125 216.296875 217.585938 214.804688 218.476562 213.328125 C 219.085938 212.320312 219.4375 211.210938 219.683594 210.066406 C 219.90625 209.042969 219.769531 208.03125 219.53125 207.035156 C 219.160156 205.476562 218.59375 203.988281 217.910156 202.546875 C 217.195312 201.039062 215.703125 197.890625 215.710938 197.800781 C 218.097656 200.027344 220.371094 202.332031 221.492188 205.519531 C 221.53125 205.507812 221.769531 203.039062 221.800781 202.019531 C 221.851562 200.476562 221.625 198.964844 221.335938 197.460938 C 221.070312 196.074219 220.546875 194.777344 219.945312 193.503906 C 219.523438 192.613281 218.9375 191.839844 218.355469 191.058594 C 218.226562 190.882812 218.101562 190.703125 218.007812 190.476562 C 218.078125 190.511719 219.71875 191.433594 220.59375 191.597656 C 221.722656 191.808594 222.84375 191.722656 223.964844 191.609375 C 224.699219 191.535156 226.507812 191.28125 226.761719 191.222656 C 226.609375 191.117188 223.714844 189.148438 222.484375 188.042969 Z M 202.96875 176.0625 C 204.027344 175.148438 205.136719 174.289062 206.21875 173.402344 C 206.394531 173.257812 206.523438 173.257812 206.683594 173.414062 C 207.617188 174.332031 208.566406 175.234375 209.488281 176.167969 C 209.949219 176.636719 210.066406 177.242188 209.96875 177.890625 C 209.785156 179.171875 209.195312 180.265625 208.382812 181.246094 C 208.328125 181.3125 208.261719 181.363281 208.167969 181.453125 C 208.160156 181.328125 208.160156 181.257812 208.148438 181.1875 C 208.003906 180.207031 207.890625 179.222656 207.699219 178.25 C 207.566406 177.550781 207.125 177.257812 206.410156 177.242188 C 206.300781 177.242188 206.191406 177.238281 206.082031 177.242188 C 204.683594 177.273438 203.285156 177.308594 201.835938 177.34375 C 202.214844 176.90625 202.542969 176.429688 202.96875 176.0625 Z M 189.566406 171.804688 C 190.132812 170.746094 190.675781 169.675781 191.28125 168.636719 C 191.605469 168.085938 191.988281 167.546875 192.433594 167.085938 C 193.421875 166.050781 194.683594 165.441406 196.023438 164.984375 C 196.09375 164.957031 196.167969 164.953125 196.242188 164.9375 C 194.882812 166.167969 193.652344 167.492188 192.648438 169.058594 C 193.339844 168.828125 193.980469 168.605469 194.628906 168.402344 C 196.613281 167.78125 198.625 167.550781 200.679688 167.988281 C 201.332031 168.125 201.949219 168.347656 202.566406 168.738281 C 197.804688 168.335938 193.578125 169.792969 189.503906 171.964844 C 189.527344 171.902344 189.539062 171.847656 189.566406 171.804688 Z M 174.101562 167.988281 C 176.160156 167.550781 178.167969 167.78125 180.152344 168.402344 C 180.800781 168.605469 181.441406 168.828125 182.136719 169.058594 C 181.128906 167.492188 179.898438 166.167969 178.539062 164.9375 C 178.613281 164.953125 178.6875 164.957031 178.757812 164.984375 C 180.097656 165.441406 181.359375 166.050781 182.351562 167.085938 C 182.792969 167.546875 183.175781 168.085938 183.5 168.636719 C 184.105469 169.675781 184.648438 170.746094 185.21875 171.804688 C 185.242188 171.847656 185.253906 171.902344 185.277344 171.964844 C 181.203125 169.792969 176.976562 168.335938 172.214844 168.738281 C 172.835938 168.347656 173.449219 168.125 174.101562 167.988281 Z M 165.296875 176.167969 C 166.214844 175.234375 167.164062 174.332031 168.101562 173.414062 C 168.257812 173.257812 168.386719 173.257812 168.566406 173.402344 C 169.644531 174.289062 170.753906 175.148438 171.816406 176.0625 C 172.238281 176.429688 172.570312 176.90625 172.945312 177.34375 C 171.496094 177.308594 170.097656 177.273438 168.699219 177.242188 C 168.59375 177.238281 168.484375 177.242188 168.375 177.242188 C 167.65625 177.257812 167.21875 177.550781 167.082031 178.25 C 166.890625 179.222656 166.777344 180.207031 166.632812 181.1875 C 166.625 181.257812 166.621094 181.328125 166.613281 181.453125 C 166.519531 181.363281 166.453125 181.3125 166.398438 181.246094 C 165.585938 180.265625 165 179.171875 164.8125 177.890625 C 164.714844 177.242188 164.832031 176.636719 165.296875 176.167969 Z M 159.980469 193.71875 C 159.980469 193.636719 160.824219 191.121094 161.292969 189.929688 C 161.808594 188.628906 162.816406 187.726562 163.890625 186.898438 C 165.886719 185.359375 170.265625 182.773438 170.359375 182.742188 C 168.515625 184.53125 166.652344 186.214844 164.933594 188.035156 C 163.214844 189.851562 161.640625 191.800781 159.980469 193.71875 Z M 177.074219 221.101562 C 176.917969 220.75 176.738281 220.40625 176.609375 220.042969 C 175.855469 217.917969 174.910156 215.875 173.746094 213.949219 C 173.230469 213.097656 172.617188 212.289062 171.964844 211.535156 C 171.269531 210.726562 170.371094 210.15625 169.375 209.757812 C 169.261719 209.710938 169.148438 209.660156 169.015625 209.601562 C 168.996094 209.667969 168.953125 210.789062 168.980469 211.304688 C 169.03125 212.382812 168.8125 213.421875 168.582031 214.464844 C 168.359375 215.476562 167.886719 216.363281 167.335938 217.207031 C 167.101562 217.566406 166.414062 218.140625 166.382812 218.121094 C 166.4375 217.949219 166.964844 216.082031 167.078125 215.296875 C 167.257812 214.039062 167.21875 212.785156 167.050781 211.535156 C 166.980469 211.007812 166.816406 210.488281 166.660156 209.976562 C 166.425781 209.203125 166.125 208.445312 165.925781 207.664062 C 165.644531 206.558594 165.664062 205.429688 165.773438 204.292969 C 165.933594 202.644531 166.464844 201.105469 167.195312 199.644531 C 168.050781 197.9375 170.523438 194.792969 170.578125 194.789062 C 170.546875 194.890625 169.5625 197.191406 169.171875 198.277344 C 168.742188 199.46875 168.367188 200.679688 168.039062 201.902344 C 167.605469 203.527344 168.03125 205 169.085938 206.265625 C 169.542969 206.808594 170.148438 207.230469 170.691406 207.703125 C 171.472656 208.386719 172.289062 209.035156 173.035156 209.753906 C 173.832031 210.519531 174.363281 211.488281 174.785156 212.5 C 175.292969 213.71875 175.792969 214.945312 176.179688 216.207031 C 176.519531 217.308594 176.695312 218.457031 176.9375 219.585938 C 177.007812 219.90625 177.105469 221.09375 177.074219 221.101562 Z M 191.328125 206.023438 C 191.378906 206.527344 191.429688 207.007812 191.5625 207.464844 C 191.785156 208.226562 192.019531 208.980469 191.976562 209.789062 C 191.925781 210.699219 191.46875 211.390625 190.777344 212.003906 C 190.738281 211.273438 190.890625 210.574219 190.613281 209.914062 C 190.347656 209.285156 190.039062 208.675781 189.519531 208.171875 C 189.679688 210.453125 188.746094 212.316406 187.386719 214.019531 C 187.386719 214.015625 187.386719 214.015625 187.386719 214.011719 C 186.035156 212.3125 185.105469 210.453125 185.261719 208.171875 C 184.742188 208.675781 184.433594 209.285156 184.167969 209.914062 C 183.890625 210.574219 184.042969 211.273438 184.003906 212.003906 C 183.3125 211.390625 182.855469 210.699219 182.804688 209.789062 C 182.765625 208.980469 182.996094 208.226562 183.21875 207.464844 C 183.351562 207.007812 183.40625 206.527344 183.453125 206.023438 C 182.636719 207.15625 181.394531 207.519531 180.125 208 C 180.238281 207.753906 180.3125 207.574219 180.398438 207.394531 C 180.773438 206.605469 181.15625 205.820312 181.523438 205.03125 C 181.753906 204.53125 181.804688 204 181.785156 203.457031 C 181.769531 202.972656 181.78125 202.488281 181.769531 202.007812 C 181.765625 201.832031 181.828125 201.785156 182.003906 201.757812 C 182.40625 201.703125 182.832031 201.671875 183.199219 201.511719 C 183.535156 201.367188 183.839844 201.101562 184.097656 200.832031 C 184.476562 200.429688 184.792969 199.96875 185.160156 199.550781 C 185.253906 199.445312 185.429688 199.359375 185.570312 199.351562 C 186.175781 199.316406 186.78125 199.3125 187.386719 199.296875 C 187.996094 199.3125 188.605469 199.316406 189.210938 199.351562 C 189.355469 199.359375 189.527344 199.445312 189.621094 199.550781 C 189.988281 199.96875 190.304688 200.429688 190.6875 200.832031 C 190.941406 201.101562 191.246094 201.367188 191.582031 201.511719 C 191.949219 201.671875 192.375 201.703125 192.78125 201.757812 C 192.953125 201.785156 193.015625 201.832031 193.011719 202.007812 C 193.003906 202.488281 193.011719 202.972656 192.996094 203.457031 C 192.976562 204 193.027344 204.53125 193.257812 205.03125 C 193.625 205.820312 194.007812 206.605469 194.382812 207.394531 C 194.46875 207.574219 194.546875 207.753906 194.65625 208 C 193.390625 207.519531 192.144531 207.15625 191.328125 206.023438 Z M 195.957031 196.925781 C 195.722656 197.144531 195.523438 197.324219 195.332031 197.515625 C 195.210938 197.636719 195.117188 197.621094 194.976562 197.53125 C 194.347656 197.132812 193.714844 196.734375 193.070312 196.359375 C 192.675781 196.128906 192.257812 195.941406 191.851562 195.730469 C 191.839844 195.75 193.035156 197.550781 193.675781 198.480469 C 193.183594 198.703125 192.730469 198.914062 192.273438 199.109375 C 192.199219 199.140625 192.09375 199.117188 192.007812 199.097656 C 190.96875 198.871094 190.015625 198.417969 189.078125 197.941406 C 188.773438 197.785156 188.488281 197.578125 188.210938 197.375 C 188.128906 197.3125 188.054688 197.183594 188.050781 197.085938 C 188.039062 196.339844 188.035156 195.589844 188.046875 194.84375 C 188.050781 194.75 188.132812 194.617188 188.210938 194.578125 C 188.5625 194.402344 188.929688 194.265625 189.277344 194.089844 C 189.738281 193.859375 190.261719 193.683594 190.625 193.34375 C 191.25 192.757812 192.394531 191.308594 192.445312 191.203125 C 192.039062 191.308594 191.679688 191.367188 191.339844 191.492188 C 190.066406 191.972656 188.753906 192.214844 187.386719 192.128906 C 186.023438 192.214844 184.714844 191.972656 183.441406 191.492188 C 183.105469 191.367188 182.742188 191.308594 182.335938 191.203125 C 182.386719 191.308594 183.53125 192.757812 184.160156 193.34375 C 184.523438 193.683594 185.042969 193.859375 185.503906 194.089844 C 185.851562 194.265625 186.222656 194.402344 186.570312 194.578125 C 186.648438 194.617188 186.730469 194.75 186.734375 194.84375 C 186.746094 195.589844 186.746094 196.339844 186.730469 197.085938 C 186.726562 197.183594 186.652344 197.3125 186.570312 197.375 C 186.292969 197.578125 186.007812 197.785156 185.703125 197.941406 C 184.765625 198.417969 183.8125 198.871094 182.773438 199.097656 C 182.6875 199.117188 182.582031 199.140625 182.507812 199.109375 C 182.050781 198.914062 181.601562 198.703125 181.105469 198.480469 C 181.746094 197.550781 182.941406 195.75 182.929688 195.730469 C 182.523438 195.941406 182.105469 196.128906 181.710938 196.359375 C 181.066406 196.734375 180.433594 197.132812 179.804688 197.53125 C 179.664062 197.621094 179.570312 197.636719 179.449219 197.515625 C 179.257812 197.324219 179.058594 197.144531 178.824219 196.925781 C 179.898438 196.15625 180.921875 195.425781 181.945312 194.691406 C 181.933594 194.664062 179.496094 195.089844 178.277344 195.332031 C 178.28125 195.300781 178.28125 195.261719 178.296875 195.238281 C 178.742188 194.503906 179.011719 193.703125 179.226562 192.882812 C 179.429688 192.113281 179.972656 191.605469 180.507812 191.085938 C 180.769531 190.828125 181.054688 190.582031 181.378906 190.285156 C 181.175781 190.257812 181.03125 190.234375 180.882812 190.214844 C 179.570312 190.050781 178.246094 189.941406 176.941406 189.699219 C 176.140625 189.554688 175.460938 189.058594 174.875 188.484375 C 174.632812 188.242188 174.539062 187.910156 174.59375 187.570312 C 174.675781 187.070312 174.769531 186.566406 174.910156 186.078125 C 175.054688 185.59375 175.050781 185.109375 175.023438 184.617188 C 174.972656 183.652344 174.925781 182.691406 174.886719 181.726562 C 174.859375 181.164062 175.035156 180.679688 175.515625 180.347656 C 176.371094 179.75 177.230469 179.152344 178.105469 178.585938 C 178.375 178.414062 178.480469 178.273438 178.417969 177.929688 C 178.277344 177.121094 178.257812 176.300781 178.433594 175.488281 C 178.519531 175.070312 178.761719 174.796875 179.179688 174.777344 C 180.195312 174.726562 181.214844 174.691406 182.230469 174.699219 C 182.734375 174.707031 183.253906 174.773438 183.738281 174.910156 C 185.242188 175.328125 186.5625 176.042969 187.386719 177.453125 C 187.386719 177.453125 187.386719 177.457031 187.386719 177.460938 C 188.214844 176.046875 189.535156 175.328125 191.042969 174.910156 C 191.53125 174.773438 192.046875 174.707031 192.550781 174.699219 C 193.570312 174.691406 194.585938 174.726562 195.601562 174.777344 C 196.023438 174.796875 196.261719 175.070312 196.351562 175.488281 C 196.523438 176.300781 196.503906 177.121094 196.363281 177.929688 C 196.300781 178.273438 196.40625 178.414062 196.675781 178.585938 C 197.550781 179.152344 198.410156 179.75 199.269531 180.347656 C 199.746094 180.679688 199.921875 181.164062 199.898438 181.726562 C 199.855469 182.691406 199.808594 183.652344 199.757812 184.617188 C 199.730469 185.109375 199.726562 185.59375 199.871094 186.078125 C 200.015625 186.566406 200.105469 187.070312 200.1875 187.570312 C 200.242188 187.910156 200.152344 188.242188 199.90625 188.484375 C 199.320312 189.058594 198.640625 189.554688 197.839844 189.699219 C 196.539062 189.941406 195.210938 190.050781 193.898438 190.214844 C 193.753906 190.234375 193.609375 190.257812 193.402344 190.285156 C 193.730469 190.582031 194.007812 190.828125 194.277344 191.085938 C 194.808594 191.605469 195.351562 192.113281 195.558594 192.882812 C 195.773438 193.703125 196.039062 194.503906 196.484375 195.238281 C 196.5 195.261719 196.5 195.300781 196.503906 195.332031 C 195.289062 195.089844 192.847656 194.664062 192.835938 194.691406 C 193.859375 195.425781 194.882812 196.15625 195.957031 196.925781 Z M 208.855469 207.664062 C 208.660156 208.445312 208.355469 209.203125 208.121094 209.976562 C 207.96875 210.488281 207.804688 211.007812 207.730469 211.535156 C 207.566406 212.785156 207.523438 214.039062 207.707031 215.296875 C 207.816406 216.082031 208.34375 217.949219 208.398438 218.121094 C 208.367188 218.140625 207.683594 217.566406 207.449219 217.207031 C 206.894531 216.363281 206.421875 215.476562 206.199219 214.464844 C 205.96875 213.421875 205.75 212.382812 205.804688 211.304688 C 205.828125 210.789062 205.785156 209.667969 205.765625 209.601562 C 205.632812 209.660156 205.523438 209.710938 205.40625 209.757812 C 204.410156 210.15625 203.511719 210.726562 202.816406 211.535156 C 202.164062 212.289062 201.550781 213.097656 201.035156 213.949219 C 199.871094 215.875 198.925781 217.917969 198.171875 220.042969 C 198.046875 220.40625 197.863281 220.75 197.707031 221.101562 C 197.675781 221.09375 197.773438 219.90625 197.84375 219.585938 C 198.085938 218.457031 198.265625 217.308594 198.601562 216.207031 C 198.988281 214.945312 199.488281 213.71875 199.996094 212.5 C 200.417969 211.488281 200.953125 210.519531 201.75 209.753906 C 202.496094 209.035156 203.308594 208.386719 204.09375 207.703125 C 204.632812 207.230469 205.238281 206.808594 205.695312 206.265625 C 206.75 205 207.175781 203.527344 206.742188 201.902344 C 206.414062 200.679688 206.039062 199.46875 205.609375 198.277344 C 205.222656 197.191406 204.234375 194.890625 204.207031 194.789062 C 204.261719 194.792969 206.734375 197.9375 207.585938 199.644531 C 208.320312 201.105469 208.847656 202.644531 209.007812 204.292969 C 209.117188 205.429688 209.136719 206.558594 208.855469 207.664062 Z M 209.847656 188.035156 C 208.128906 186.214844 206.269531 184.53125 204.421875 182.742188 C 204.515625 182.773438 208.894531 185.359375 210.890625 186.898438 C 211.964844 187.726562 212.976562 188.628906 213.488281 189.929688 C 213.957031 191.121094 214.800781 193.636719 214.800781 193.71875 C 213.140625 191.800781 211.566406 189.851562 209.847656 188.035156 " fill-opacity="1" fill-rule="nonzero"/></g><path fill="#ffffff" d="M 196.503906 195.332031 C 196.5 195.300781 196.5 195.261719 196.484375 195.238281 C 196.039062 194.503906 195.773438 193.703125 195.558594 192.882812 C 195.351562 192.113281 194.808594 191.605469 194.277344 191.085938 C 194.007812 190.828125 193.730469 190.582031 193.402344 190.285156 C 193.609375 190.257812 193.753906 190.234375 193.898438 190.214844 C 195.210938 190.050781 196.539062 189.941406 197.839844 189.699219 C 198.640625 189.554688 199.320312 189.058594 199.90625 188.484375 C 200.152344 188.242188 200.242188 187.910156 200.1875 187.570312 C 200.105469 187.070312 200.015625 186.566406 199.871094 186.078125 C 199.726562 185.59375 199.730469 185.109375 199.757812 184.617188 C 199.808594 183.652344 199.855469 182.691406 199.898438 181.726562 C 199.921875 181.164062 199.746094 180.679688 199.269531 180.347656 C 198.410156 179.75 197.550781 179.152344 196.675781 178.585938 C 196.40625 178.414062 196.300781 178.273438 196.363281 177.929688 C 196.503906 177.121094 196.523438 176.300781 196.351562 175.488281 C 196.261719 175.070312 196.023438 174.796875 195.601562 174.777344 C 194.585938 174.726562 193.570312 174.691406 192.550781 174.699219 C 192.046875 174.707031 191.53125 174.773438 191.042969 174.910156 C 189.535156 175.328125 188.214844 176.046875 187.386719 177.460938 C 187.386719 177.457031 187.386719 177.453125 187.386719 177.453125 C 186.5625 176.042969 185.242188 175.328125 183.738281 174.910156 C 183.253906 174.773438 182.734375 174.707031 182.230469 174.699219 C 181.214844 174.691406 180.195312 174.726562 179.179688 174.777344 C 178.761719 174.796875 178.519531 175.070312 178.433594 175.488281 C 178.257812 176.300781 178.277344 177.121094 178.417969 177.929688 C 178.480469 178.273438 178.375 178.414062 178.105469 178.585938 C 177.230469 179.152344 176.371094 179.75 175.515625 180.347656 C 175.035156 180.679688 174.859375 181.164062 174.886719 181.726562 C 174.925781 182.691406 174.972656 183.652344 175.023438 184.617188 C 175.050781 185.109375 175.054688 185.59375 174.910156 186.078125 C 174.769531 186.566406 174.675781 187.070312 174.59375 187.570312 C 174.539062 187.910156 174.632812 188.242188 174.875 188.484375 C 175.460938 189.058594 176.140625 189.554688 176.941406 189.699219 C 178.246094 189.941406 179.570312 190.050781 180.882812 190.214844 C 181.03125 190.234375 181.175781 190.257812 181.378906 190.285156 C 181.054688 190.582031 180.769531 190.828125 180.507812 191.085938 C 179.972656 191.605469 179.429688 192.113281 179.226562 192.882812 C 179.011719 193.703125 178.742188 194.503906 178.296875 195.238281 C 178.28125 195.261719 178.28125 195.300781 178.277344 195.332031 C 179.496094 195.089844 181.933594 194.664062 181.945312 194.691406 C 180.921875 195.425781 179.898438 196.15625 178.824219 196.925781 C 179.058594 197.144531 179.257812 197.324219 179.449219 197.515625 C 179.570312 197.636719 179.664062 197.621094 179.804688 197.53125 C 180.433594 197.132812 181.066406 196.734375 181.710938 196.359375 C 182.105469 196.128906 182.523438 195.941406 182.929688 195.730469 C 182.941406 195.75 181.746094 197.550781 181.105469 198.480469 C 181.601562 198.703125 182.050781 198.914062 182.507812 199.109375 C 182.582031 199.140625 182.6875 199.117188 182.773438 199.097656 C 183.8125 198.871094 184.765625 198.417969 185.703125 197.941406 C 186.007812 197.785156 186.292969 197.578125 186.570312 197.375 C 186.652344 197.3125 186.726562 197.183594 186.730469 197.085938 C 186.746094 196.339844 186.746094 195.589844 186.734375 194.84375 C 186.730469 194.75 186.648438 194.617188 186.570312 194.578125 C 186.222656 194.402344 185.851562 194.265625 185.503906 194.089844 C 185.042969 193.859375 184.523438 193.683594 184.160156 193.34375 C 183.53125 192.757812 182.386719 191.308594 182.335938 191.203125 C 182.742188 191.308594 183.105469 191.367188 183.441406 191.492188 C 184.714844 191.972656 186.023438 192.214844 187.386719 192.128906 C 188.753906 192.214844 190.066406 191.972656 191.339844 191.492188 C 191.679688 191.367188 192.039062 191.308594 192.445312 191.203125 C 192.394531 191.308594 191.25 192.757812 190.625 193.34375 C 190.261719 193.683594 189.738281 193.859375 189.277344 194.089844 C 188.929688 194.265625 188.5625 194.402344 188.210938 194.578125 C 188.132812 194.617188 188.050781 194.75 188.046875 194.84375 C 188.035156 195.589844 188.039062 196.339844 188.050781 197.085938 C 188.054688 197.183594 188.128906 197.3125 188.210938 197.375 C 188.488281 197.578125 188.773438 197.785156 189.078125 197.941406 C 190.015625 198.417969 190.96875 198.871094 192.007812 199.097656 C 192.09375 199.117188 192.199219 199.140625 192.273438 199.109375 C 192.730469 198.914062 193.183594 198.703125 193.675781 198.480469 C 193.035156 197.550781 191.839844 195.75 191.851562 195.730469 C 192.257812 195.941406 192.675781 196.128906 193.070312 196.359375 C 193.714844 196.734375 194.347656 197.132812 194.976562 197.53125 C 195.117188 197.621094 195.210938 197.636719 195.332031 197.515625 C 195.523438 197.324219 195.722656 197.144531 195.957031 196.925781 C 194.882812 196.15625 193.859375 195.425781 192.835938 194.691406 C 192.847656 194.664062 195.289062 195.089844 196.503906 195.332031 Z M 182.910156 188.722656 C 182.910156 188.765625 182.90625 188.808594 182.898438 188.933594 C 182.820312 188.8125 182.773438 188.753906 182.746094 188.6875 C 182.398438 187.828125 182.046875 186.972656 181.707031 186.109375 C 181.632812 185.917969 181.527344 185.804688 181.335938 185.714844 C 180.453125 185.292969 179.558594 184.878906 178.703125 184.402344 C 178.105469 184.066406 177.683594 183.53125 177.394531 182.902344 C 177.234375 182.554688 177.183594 182.183594 177.195312 181.757812 C 177.285156 181.8125 179.210938 182.890625 180.242188 183.152344 C 180.382812 183.1875 180.527344 183.222656 180.671875 183.222656 C 181.382812 183.226562 181.867188 183.691406 182.421875 184.03125 C 182.808594 184.269531 182.9375 184.546875 182.925781 185.003906 C 182.890625 186.242188 182.910156 187.480469 182.910156 188.722656 Z M 187.386719 183.097656 C 186.230469 183.058594 185.183594 183.414062 184.140625 184.027344 C 184.199219 183.851562 184.234375 183.730469 184.285156 183.621094 C 184.589844 182.972656 184.957031 182.355469 185.566406 181.953125 C 186.546875 181.308594 187.09375 180.398438 187.328125 179.273438 C 187.339844 179.21875 187.367188 179.167969 187.386719 179.113281 C 187.386719 179.109375 187.386719 179.105469 187.386719 179.101562 C 187.410156 179.160156 187.441406 179.214844 187.453125 179.273438 C 187.691406 180.398438 188.234375 181.308594 189.214844 181.953125 C 189.824219 182.355469 190.191406 182.972656 190.496094 183.621094 C 190.550781 183.730469 190.582031 183.851562 190.640625 184.027344 C 189.597656 183.410156 188.546875 183.054688 187.386719 183.097656 Z M 192.035156 188.6875 C 192.007812 188.753906 191.960938 188.8125 191.886719 188.933594 C 191.878906 188.808594 191.871094 188.765625 191.871094 188.722656 C 191.871094 187.480469 191.894531 186.242188 191.855469 185.003906 C 191.84375 184.546875 191.972656 184.269531 192.359375 184.03125 C 192.914062 183.691406 193.402344 183.226562 194.113281 183.222656 C 194.253906 183.222656 194.398438 183.1875 194.539062 183.152344 C 195.570312 182.890625 197.496094 181.8125 197.585938 181.757812 C 197.597656 182.183594 197.546875 182.554688 197.386719 182.902344 C 197.097656 183.53125 196.675781 184.066406 196.078125 184.402344 C 195.222656 184.878906 194.332031 185.292969 193.445312 185.714844 C 193.253906 185.804688 193.148438 185.917969 193.074219 186.109375 C 192.734375 186.972656 192.382812 187.828125 192.035156 188.6875 " fill-opacity="1" fill-rule="nonzero"/><path fill="#ffffff" d="M 193.257812 205.03125 C 193.027344 204.53125 192.976562 204 192.996094 203.457031 C 193.011719 202.972656 193.003906 202.488281 193.011719 202.007812 C 193.015625 201.832031 192.953125 201.785156 192.78125 201.757812 C 192.375 201.703125 191.949219 201.671875 191.582031 201.511719 C 191.246094 201.367188 190.941406 201.101562 190.6875 200.832031 C 190.304688 200.429688 189.988281 199.96875 189.621094 199.550781 C 189.527344 199.445312 189.355469 199.359375 189.210938 199.351562 C 188.605469 199.316406 187.996094 199.3125 187.386719 199.296875 C 186.78125 199.3125 186.175781 199.316406 185.570312 199.351562 C 185.429688 199.359375 185.253906 199.445312 185.160156 199.550781 C 184.792969 199.96875 184.476562 200.429688 184.097656 200.832031 C 183.839844 201.101562 183.535156 201.367188 183.199219 201.511719 C 182.832031 201.671875 182.40625 201.703125 182.003906 201.757812 C 181.828125 201.785156 181.765625 201.832031 181.769531 202.007812 C 181.78125 202.488281 181.769531 202.972656 181.785156 203.457031 C 181.804688 204 181.753906 204.53125 181.523438 205.03125 C 181.15625 205.820312 180.773438 206.605469 180.398438 207.394531 C 180.3125 207.574219 180.238281 207.753906 180.125 208 C 181.394531 207.519531 182.636719 207.15625 183.453125 206.023438 C 183.40625 206.527344 183.351562 207.007812 183.21875 207.464844 C 182.996094 208.226562 182.765625 208.980469 182.804688 209.789062 C 182.855469 210.699219 183.3125 211.390625 184.003906 212.003906 C 184.042969 211.273438 183.890625 210.574219 184.167969 209.914062 C 184.433594 209.285156 184.742188 208.675781 185.261719 208.171875 C 185.105469 210.453125 186.035156 212.3125 187.386719 214.011719 C 187.386719 214.015625 187.386719 214.015625 187.386719 214.019531 C 188.746094 212.316406 189.679688 210.453125 189.519531 208.171875 C 190.039062 208.675781 190.347656 209.285156 190.613281 209.914062 C 190.890625 210.574219 190.738281 211.273438 190.777344 212.003906 C 191.46875 211.390625 191.925781 210.699219 191.976562 209.789062 C 192.019531 208.980469 191.785156 208.226562 191.5625 207.464844 C 191.429688 207.007812 191.378906 206.527344 191.328125 206.023438 C 192.144531 207.15625 193.390625 207.519531 194.65625 208 C 194.546875 207.753906 194.46875 207.574219 194.382812 207.394531 C 194.007812 206.605469 193.625 205.820312 193.257812 205.03125 " fill-opacity="1" fill-rule="nonzero"/><path fill="#111b1e" d="M 189.214844 181.953125 C 188.234375 181.308594 187.691406 180.398438 187.453125 179.273438 C 187.441406 179.214844 187.410156 179.160156 187.386719 179.101562 C 187.386719 179.105469 187.386719 179.109375 187.386719 179.113281 C 187.367188 179.167969 187.339844 179.21875 187.328125 179.273438 C 187.09375 180.398438 186.546875 181.308594 185.566406 181.953125 C 184.957031 182.355469 184.589844 182.972656 184.285156 183.621094 C 184.234375 183.730469 184.199219 183.851562 184.140625 184.027344 C 185.183594 183.414062 186.230469 183.058594 187.386719 183.097656 C 188.546875 183.054688 189.597656 183.410156 190.640625 184.027344 C 190.582031 183.851562 190.550781 183.730469 190.496094 183.621094 C 190.191406 182.972656 189.824219 182.355469 189.214844 181.953125 " fill-opacity="1" fill-rule="nonzero"/><path fill="#ffffff" d="M 207.585938 199.644531 C 206.734375 197.9375 204.261719 194.792969 204.207031 194.789062 C 204.234375 194.890625 205.222656 197.191406 205.609375 198.277344 C 206.039062 199.46875 206.414062 200.679688 206.742188 201.902344 C 207.175781 203.527344 206.75 205 205.695312 206.265625 C 205.238281 206.808594 204.632812 207.230469 204.09375 207.703125 C 203.308594 208.386719 202.496094 209.035156 201.75 209.753906 C 200.953125 210.519531 200.417969 211.488281 199.996094 212.5 C 199.488281 213.71875 198.988281 214.945312 198.601562 216.207031 C 198.265625 217.308594 198.085938 218.457031 197.84375 219.585938 C 197.773438 219.90625 197.675781 221.09375 197.707031 221.101562 C 197.863281 220.75 198.046875 220.40625 198.171875 220.042969 C 198.925781 217.917969 199.871094 215.875 201.035156 213.949219 C 201.550781 213.097656 202.164062 212.289062 202.816406 211.535156 C 203.511719 210.726562 204.410156 210.15625 205.40625 209.757812 C 205.523438 209.710938 205.632812 209.660156 205.765625 209.601562 C 205.785156 209.667969 205.828125 210.789062 205.804688 211.304688 C 205.75 212.382812 205.96875 213.421875 206.199219 214.464844 C 206.421875 215.476562 206.894531 216.363281 207.449219 217.207031 C 207.683594 217.566406 208.367188 218.140625 208.398438 218.121094 C 208.34375 217.949219 207.816406 216.082031 207.707031 215.296875 C 207.523438 214.039062 207.566406 212.785156 207.730469 211.535156 C 207.804688 211.007812 207.96875 210.488281 208.121094 209.976562 C 208.355469 209.203125 208.660156 208.445312 208.855469 207.664062 C 209.136719 206.558594 209.117188 205.429688 209.007812 204.292969 C 208.847656 202.644531 208.320312 201.105469 207.585938 199.644531 " fill-opacity="1" fill-rule="nonzero"/><path fill="#ffffff" d="M 206.082031 177.242188 C 206.191406 177.238281 206.300781 177.242188 206.410156 177.242188 C 207.125 177.257812 207.566406 177.550781 207.699219 178.25 C 207.890625 179.222656 208.003906 180.207031 208.148438 181.1875 C 208.160156 181.257812 208.160156 181.328125 208.167969 181.453125 C 208.261719 181.363281 208.328125 181.3125 208.382812 181.246094 C 209.195312 180.265625 209.785156 179.171875 209.96875 177.890625 C 210.066406 177.242188 209.949219 176.636719 209.488281 176.167969 C 208.566406 175.234375 207.617188 174.332031 206.683594 173.414062 C 206.523438 173.257812 206.394531 173.257812 206.21875 173.402344 C 205.136719 174.289062 204.027344 175.148438 202.96875 176.0625 C 202.542969 176.429688 202.214844 176.90625 201.835938 177.34375 C 203.285156 177.308594 204.683594 177.273438 206.082031 177.242188 " fill-opacity="1" fill-rule="nonzero"/><path fill="#ffffff" d="M 202.566406 168.738281 C 201.949219 168.347656 201.332031 168.125 200.679688 167.988281 C 198.625 167.550781 196.613281 167.78125 194.628906 168.402344 C 193.980469 168.605469 193.339844 168.828125 192.648438 169.058594 C 193.652344 167.492188 194.882812 166.167969 196.242188 164.9375 C 196.167969 164.953125 196.09375 164.957031 196.023438 164.984375 C 194.683594 165.441406 193.421875 166.050781 192.433594 167.085938 C 191.988281 167.546875 191.605469 168.085938 191.28125 168.636719 C 190.675781 169.675781 190.132812 170.746094 189.566406 171.804688 C 189.539062 171.847656 189.527344 171.902344 189.503906 171.964844 C 193.578125 169.792969 197.804688 168.335938 202.566406 168.738281 " fill-opacity="1" fill-rule="nonzero"/><path fill="#ffffff" d="M 210.890625 186.898438 C 208.894531 185.359375 204.515625 182.773438 204.421875 182.742188 C 206.269531 184.53125 208.128906 186.214844 209.847656 188.035156 C 211.566406 189.851562 213.140625 191.800781 214.800781 193.71875 C 214.800781 193.636719 213.957031 191.121094 213.488281 189.929688 C 212.976562 188.628906 211.964844 187.726562 210.890625 186.898438 " fill-opacity="1" fill-rule="nonzero"/><path fill="#111b1e" d="M 193.445312 185.714844 C 194.332031 185.292969 195.222656 184.878906 196.078125 184.402344 C 196.675781 184.066406 197.097656 183.53125 197.386719 182.902344 C 197.546875 182.554688 197.597656 182.183594 197.585938 181.757812 C 197.496094 181.8125 195.570312 182.890625 194.539062 183.152344 C 194.398438 183.1875 194.253906 183.222656 194.113281 183.222656 C 193.402344 183.226562 192.914062 183.691406 192.359375 184.03125 C 191.972656 184.269531 191.84375 184.546875 191.855469 185.003906 C 191.894531 186.242188 191.871094 187.480469 191.871094 188.722656 C 191.871094 188.765625 191.878906 188.808594 191.886719 188.933594 C 191.960938 188.8125 192.007812 188.753906 192.035156 188.6875 C 192.382812 187.828125 192.734375 186.972656 193.074219 186.109375 C 193.148438 185.917969 193.253906 185.804688 193.445312 185.714844 " fill-opacity="1" fill-rule="nonzero"/><g fill="#111b1e" fill-opacity="1"><g transform="translate(126.035967, 123.085809)"><g><path d="M 2.460938 -26.175781 L -11.324219 -16 L -7.949219 -11.425781 L -3.691406 -14.570312 L 4.574219 -3.375 L 9.84375 -7.265625 L 1.578125 -18.460938 L 5.835938 -21.605469 Z M 2.460938 -26.175781 "/></g></g></g><g fill="#111b1e" fill-opacity="1"><g transform="translate(141.795099, 111.841484)"><g><path d="M -0.914062 -4.988281 L 9.652344 -10.015625 L 7.34375 -14.871094 L -3.222656 -9.84375 Z M -0.914062 -4.988281 "/></g></g></g><g fill="#111b1e" fill-opacity="1"><g transform="translate(156.014786, 104.991954)"><g><path d="M 5.707031 -21.652344 L -3.304688 -19.378906 L 1.492188 -0.375 L 7.816406 -1.972656 L 6.667969 -6.535156 L 9.355469 -7.210938 C 13.644531 -8.296875 15.976562 -12.089844 14.90625 -16.324219 C 13.839844 -20.558594 9.996094 -22.738281 5.707031 -21.652344 Z M 6.816406 -12.117188 L 5.351562 -11.746094 L 4.335938 -15.765625 L 5.800781 -16.132812 C 7.023438 -16.441406 8.042969 -15.832031 8.34375 -14.640625 C 8.648438 -13.445312 8.039062 -12.425781 6.816406 -12.117188 Z M 6.816406 -12.117188 "/></g></g></g><g fill="#111b1e" fill-opacity="1"><g transform="translate(175.675722, 100.361709)"><g><path d="M 7.921875 -6.253906 L 7.28125 -19.960938 L 0.625 -19.648438 L 1.539062 -0.0703125 L 14.710938 -0.6875 L 14.4375 -6.558594 Z M 7.921875 -6.253906 "/></g></g></g><g fill="#111b1e" fill-opacity="1"><g transform="translate(192.141842, 99.38604)"><g><path d="M 14.492188 2.464844 L 21.640625 3.683594 L 17.171875 -16.957031 L 10.714844 -18.054688 L -0.277344 -0.046875 L 6.652344 1.132812 L 7.964844 -1.398438 L 14.117188 -0.351562 Z M 13.695312 -5.050781 L 9.914062 -5.695312 L 12.695312 -10.675781 Z M 13.695312 -5.050781 "/></g></g></g><g fill="#111b1e" fill-opacity="1"><g transform="translate(214.566739, 103.294285)"><g><path d="M 10.199219 5.179688 C 15.359375 7.488281 20.738281 5.816406 23.53125 1.085938 L 17.375 -1.671875 C 16.210938 -0.105469 14.332031 0.464844 12.671875 -0.277344 C 10.550781 -1.230469 9.839844 -3.480469 10.902344 -5.855469 C 11.976562 -8.257812 14.128906 -9.226562 16.25 -8.277344 C 17.808594 -7.578125 18.683594 -5.902344 18.484375 -4.085938 L 24.566406 -1.363281 C 26.089844 -6.480469 23.746094 -11.457031 18.660156 -13.730469 C 12.9375 -16.292969 7.011719 -14.160156 4.566406 -8.691406 C 2.117188 -3.222656 4.472656 2.617188 10.199219 5.179688 Z M 10.199219 5.179688 "/></g></g></g><g fill="#111b1e" fill-opacity="1"><g transform="translate(235.969352, 113.410461)"><g><path d="M 9.539062 0.589844 L 10.820312 -1.109375 L 15.808594 2.644531 L 18.703125 -1.203125 L 13.714844 -4.957031 L 14.996094 -6.65625 L 20.566406 -2.464844 L 23.730469 -6.671875 L 13.011719 -14.734375 L 1.230469 0.925781 L 12.058594 9.074219 L 15.222656 4.867188 Z M 9.539062 0.589844 "/></g></g></g><g fill="#111b1e" fill-opacity="1"><g transform="translate(138.432465, 282.620836)"><g><path d="M 5.898438 3.15625 C 9.433594 4.769531 12.300781 4.050781 13.609375 1.183594 C 15.015625 -1.890625 12.78125 -3.71875 11.117188 -5.078125 C 10.128906 -5.898438 9.335938 -6.539062 9.632812 -7.1875 C 9.808594 -7.570312 10.179688 -7.679688 10.636719 -7.46875 C 11.117188 -7.25 11.253906 -6.84375 11.015625 -6.324219 L 15.523438 -4.265625 C 16.773438 -7 15.566406 -9.511719 12.261719 -11.023438 C 8.898438 -12.558594 6.207031 -11.871094 4.996094 -9.214844 C 3.527344 -6.007812 5.703125 -4.296875 7.328125 -3 C 8.304688 -2.207031 9.105469 -1.589844 8.785156 -0.882812 C 8.566406 -0.40625 8.082031 -0.300781 7.582031 -0.53125 C 7.03125 -0.78125 6.824219 -1.292969 7.09375 -1.882812 L 2.414062 -4.023438 C 1.089844 -1.117188 2.386719 1.550781 5.898438 3.15625 Z M 5.898438 3.15625 "/></g></g></g><g fill="#111b1e" fill-opacity="1"><g transform="translate(153.39339, 289.221438)"><g><path d="M 11.710938 -12.042969 L 4.984375 -13.878906 L 1.113281 0.304688 L 5.835938 1.59375 L 6.761719 -1.8125 L 8.769531 -1.261719 C 11.96875 -0.390625 14.894531 -2.007812 15.757812 -5.167969 C 16.617188 -8.328125 14.910156 -11.167969 11.710938 -12.042969 Z M 8.917969 -5.402344 L 7.824219 -5.699219 L 8.644531 -8.699219 L 9.738281 -8.402344 C 10.648438 -8.152344 11.089844 -7.378906 10.847656 -6.488281 C 10.605469 -5.59375 9.832031 -5.152344 8.917969 -5.402344 Z M 8.917969 -5.402344 "/></g></g></g><g fill="#111b1e" fill-opacity="1"><g transform="translate(170.069119, 293.647507)"><g><path d="M 8.820312 1.144531 C 13.84375 1.554688 17.445312 -1.265625 17.824219 -5.914062 C 18.207031 -10.558594 15.113281 -13.933594 10.089844 -14.34375 C 5.066406 -14.753906 1.460938 -11.933594 1.082031 -7.285156 C 0.699219 -2.640625 3.796875 0.734375 8.820312 1.144531 Z M 9.1875 -3.335938 C 7.28125 -3.492188 6.109375 -4.894531 6.273438 -6.859375 C 6.433594 -8.828125 7.816406 -10.019531 9.722656 -9.863281 C 11.625 -9.707031 12.796875 -8.304688 12.636719 -6.339844 C 12.472656 -4.371094 11.089844 -3.179688 9.1875 -3.335938 Z M 9.1875 -3.335938 "/></g></g></g><g fill="#111b1e" fill-opacity="1"><g transform="translate(190.926055, 294.912922)"><g><path d="M 8.875 -0.9375 L 14.285156 -1.507812 L 11.195312 -6.355469 C 12.375 -7.386719 12.984375 -8.84375 12.804688 -10.535156 C 12.453125 -13.855469 9.839844 -15.820312 6.433594 -15.460938 L -0.394531 -14.738281 L 1.148438 -0.121094 L 5.992188 -0.632812 L 5.574219 -4.601562 L 6.554688 -4.703125 Z M 4.890625 -11.09375 L 6.082031 -11.222656 C 7.0625 -11.324219 7.6875 -10.800781 7.769531 -10.003906 C 7.855469 -9.210938 7.355469 -8.546875 6.375 -8.441406 L 5.183594 -8.316406 Z M 4.890625 -11.09375 "/></g></g></g><g fill="#111b1e" fill-opacity="1"><g transform="translate(208.355785, 292.778434)"><g><path d="M 8.75 -17.671875 L -3.636719 -14.246094 L -2.5 -10.136719 L 1.324219 -11.195312 L 4.109375 -1.136719 L 8.84375 -2.445312 L 6.0625 -12.507812 L 9.886719 -13.5625 Z M 8.75 -17.671875 "/></g></g></g><g fill="#111b1e" fill-opacity="1"><g transform="translate(224.110356, 288.172095)"><g><path d="M 6.25 -2.394531 C 9.78125 -4.007812 11.117188 -6.648438 9.808594 -9.511719 C 8.402344 -12.589844 5.554688 -12.097656 3.4375 -11.730469 C 2.171875 -11.519531 1.167969 -11.339844 0.871094 -11.988281 C 0.699219 -12.371094 0.859375 -12.722656 1.320312 -12.929688 C 1.796875 -13.148438 2.195312 -12.984375 2.429688 -12.46875 L 6.9375 -14.527344 C 5.691406 -17.261719 3 -17.992188 -0.304688 -16.484375 C -3.664062 -14.949219 -4.910156 -12.464844 -3.695312 -9.808594 C -2.230469 -6.601562 0.484375 -7.125 2.527344 -7.503906 C 3.765625 -7.722656 4.761719 -7.921875 5.082031 -7.21875 C 5.300781 -6.738281 5.0625 -6.304688 4.566406 -6.078125 C 4.011719 -5.828125 3.492188 -6.003906 3.21875 -6.597656 L -1.460938 -4.457031 C -0.132812 -1.554688 2.734375 -0.789062 6.25 -2.394531 Z M 6.25 -2.394531 "/></g></g></g><g fill="#111b1e" fill-opacity="1"><g transform="translate(180.605251, 148.971597)"><g><path d="M 6.179688 -7.695312 L 0.230469 -7.695312 L 0.230469 -6.144531 L 2.375 -6.144531 L 2.375 0 L 4.035156 0 L 4.035156 -6.144531 L 6.179688 -6.144531 Z M 6.179688 -7.695312 "/></g></g></g><g fill="#111b1e" fill-opacity="1"><g transform="translate(187.574716, 148.971597)"><g><path d="M 3.429688 0.152344 C 5.023438 0.152344 6.34375 -0.648438 6.34375 -2.308594 C 6.34375 -4.035156 4.871094 -4.398438 3.707031 -4.695312 C 2.878906 -4.894531 2.222656 -5.058594 2.222656 -5.597656 C 2.222656 -6.101562 2.757812 -6.332031 3.296875 -6.332031 C 3.925781 -6.332031 4.476562 -6.023438 4.476562 -5.355469 L 6.113281 -5.355469 C 6.113281 -6.894531 5.113281 -7.839844 3.34375 -7.839844 C 1.636719 -7.839844 0.550781 -7.003906 0.550781 -5.53125 C 0.550781 -3.871094 1.957031 -3.53125 3.121094 -3.242188 C 3.957031 -3.054688 4.660156 -2.890625 4.660156 -2.285156 C 4.660156 -1.714844 4.046875 -1.386719 3.417969 -1.386719 C 2.738281 -1.386719 2.121094 -1.75 2.121094 -2.484375 L 0.441406 -2.484375 C 0.441406 -0.835938 1.660156 0.152344 3.429688 0.152344 Z M 3.429688 0.152344 "/></g></g></g></svg>